<svg width="18" height="14" viewBox="0 0 18 14" fill="none" xmlns="http://www.w3.org/2000/svg">
<path d="M8.64062 7.90234C8.96094 7.90234 9.25781 7.75391 9.60156 7.41016L16.3984 0.683594C16.1094 0.402344 15.5703 0.269531 14.7969 0.269531H2.21875C1.5625 0.269531 1.10156 0.394531 0.84375 0.652344L7.67969 7.41016C8.01562 7.74609 8.3125 7.90234 8.64062 7.90234ZM0.195312 12.4727L5.71875 7.01172L0.179688 1.55078C0.0625 1.76953 0 2.14453 0 2.68359V11.3086C0 11.8633 0.0625 12.2539 0.195312 12.4727ZM17.0625 12.4648C17.1875 12.2383 17.25 11.8555 17.25 11.3086V2.68359C17.25 2.16016 17.1875 1.78516 17.0781 1.57422L11.5547 7.01172L17.0625 12.4648ZM2.45312 13.7305H15.0312C15.6875 13.7305 16.1406 13.6055 16.3984 13.3555L10.7656 7.77734L10.25 8.30078C9.71094 8.81641 9.20312 9.05078 8.64062 9.05078C8.07031 9.05078 7.5625 8.81641 7.03125 8.30078L6.50781 7.77734L0.890625 13.3477C1.1875 13.6055 1.70312 13.7305 2.45312 13.7305Z" fill="#343945"/>
</svg>
