<svg width="15" height="16" viewBox="0 0 15 16" fill="none" xmlns="http://www.w3.org/2000/svg">
<path d="M3.96875 11.2539C6.22656 13.5117 8.96875 15.2539 11.2109 15.2539C12.2188 15.2539 13.1016 14.9023 13.8125 14.1211C14.2266 13.6602 14.4844 13.1211 14.4844 12.5898C14.4844 12.1992 14.3359 11.8242 13.9688 11.5586L11.5703 9.85547C11.2031 9.60547 10.8984 9.48047 10.6172 9.48047C10.2656 9.48047 9.94531 9.68359 9.58594 10.0352L9.03125 10.582C8.94531 10.668 8.83594 10.707 8.73438 10.707C8.61719 10.707 8.5 10.6602 8.42188 10.6211C7.9375 10.3633 7.10938 9.65234 6.33594 8.88672C5.57031 8.12109 4.85938 7.29297 4.60938 6.80859C4.57031 6.72266 4.52344 6.61328 4.52344 6.49609C4.52344 6.39453 4.55469 6.29297 4.64062 6.20703L5.19531 5.63672C5.53906 5.27734 5.75 4.96484 5.75 4.60547C5.75 4.32422 5.61719 4.01953 5.35938 3.65234L3.67969 1.28516C3.40625 0.910156 3.02344 0.746094 2.60156 0.746094C2.08594 0.746094 1.55469 0.980469 1.09375 1.42578C0.335938 2.15234 0 3.05078 0 4.04297C0 6.28516 1.71094 9.00391 3.96875 11.2539Z" fill="#343945"/>
</svg>
