<svg width="157" height="49" viewBox="0 0 157 49" fill="none" xmlns="http://www.w3.org/2000/svg">
<path fill-rule="evenodd" clip-rule="evenodd" d="M38.7892 17.7069L41.2123 17.9838C42.0936 18.0852 42.7541 18.8325 42.7546 19.7183V23.7102C42.7546 24.5913 42.1029 25.3344 41.231 25.4452L38.6151 25.7729C37.9635 25.856 37.4174 26.3038 37.2064 26.9267C37.1009 27.2313 36.9907 27.5313 36.8712 27.8266C36.6649 28.3387 36.4357 28.8419 36.1785 29.331C35.8616 29.931 35.9353 30.6647 36.3573 31.1998L37.8762 33.115C38.427 33.8121 38.3719 34.8134 37.7478 35.441L34.9392 38.265C34.3198 38.8879 33.3377 38.948 32.645 38.4082L30.5664 36.7793C30.0478 36.3779 29.3457 36.3042 28.7585 36.5948C28.4005 36.7704 28.0378 36.9318 27.6709 37.0839C27.2349 37.2637 26.7896 37.4252 26.3401 37.5637C25.6932 37.7669 25.2296 38.3345 25.1517 39.0128L24.8763 41.4495C24.7801 42.3311 24.0365 43 23.1511 43H19.1815C18.3054 43 17.5665 42.3447 17.4563 41.4678L17.1305 38.8372C17.0479 38.1819 16.6026 37.6327 15.9831 37.4205C15.6802 37.3144 15.3819 37.2036 15.0883 37.0835C14.579 36.8713 14.0787 36.6408 13.5923 36.3822C12.9957 36.0634 12.2661 36.1376 11.734 36.5619L9.82953 38.0894C9.13635 38.6433 8.1407 38.5879 7.51661 37.9603L4.70845 35.1363C4.08902 34.5134 4.02927 33.5258 4.56608 32.8291L6.18581 30.7388C6.58491 30.2173 6.6582 29.5113 6.36926 28.9208C6.19468 28.5607 6.03411 28.196 5.88287 27.827C5.70409 27.3886 5.54352 26.9408 5.40582 26.4887C5.2037 25.8381 4.63936 25.372 3.96486 25.2936L1.54179 25.0166C0.665166 24.9199 0 24.1722 0 23.2817V19.2897C0 18.4082 0.65163 17.6651 1.52358 17.5548L4.13944 17.2271C4.79107 17.144 5.3372 16.6962 5.54819 16.0733C5.65368 15.7687 5.76384 15.4687 5.88334 15.1734C6.09433 14.6613 6.32352 14.1581 6.58071 13.669C6.89766 13.069 6.82391 12.3353 6.40193 11.8002L4.88302 9.88498C4.33222 9.1879 4.3873 8.18663 5.01139 7.55902L7.81536 4.73501C8.43478 4.11209 9.41689 4.05201 10.1096 4.59184L12.1882 6.22071C12.7068 6.62207 13.4088 6.69576 13.996 6.40519C14.3541 6.22963 14.7167 6.06815 15.0836 5.91606C15.5196 5.73627 15.9649 5.5748 16.4144 5.43632C17.0614 5.23306 17.5249 4.66553 17.6029 3.98723L17.8783 1.55048C17.9744 0.668919 18.718 0 19.6035 0H23.573C24.4492 0 25.1881 0.655306 25.2978 1.53265L25.6236 4.16326C25.7062 4.81856 26.1515 5.36778 26.771 5.57996C27.0739 5.68605 27.3722 5.79683 27.6658 5.917C28.175 6.12918 28.6754 6.35966 29.1618 6.61831C29.7584 6.93704 30.488 6.86288 31.0201 6.43852L32.9246 4.91104C33.6177 4.35713 34.6134 4.41252 35.2375 5.04013L38.0457 7.86414C38.6651 8.48706 38.7248 9.47471 38.188 10.1713L36.5683 12.2616C36.1692 12.7832 36.0959 13.4892 36.3848 14.0797C36.5594 14.4397 36.72 14.8045 36.8712 15.1734C37.05 15.6119 37.2106 16.0597 37.3483 16.5117C37.5504 17.1624 38.1147 17.6285 38.7892 17.7069ZM13.4592 29.4653C17.8325 33.8633 24.9267 33.8633 29.3 29.4653C33.6728 25.0673 33.6733 17.9331 29.3 13.5352C24.9267 9.1372 17.8325 9.1372 13.4592 13.5352C9.08594 17.9331 9.08594 25.0673 13.4592 29.4653Z" fill="#0A2A68"/>
<path d="M26.7061 20.8401V17.5542H25.0863V20.8401H22.0485V17.5542H20.4288V20.8401H17.3909V17.5542H15.7754V20.8401V22.1597V25.3996H17.3909V22.1597H20.4288V25.3996H22.0485V22.1597H25.8985H26.7247V20.8401H26.7061Z" fill="#0A2A68"/>
<path d="M26.7076 23.0643H25.0879V25.3992H26.7076V23.0643Z" fill="#343945"/>
<path fill-rule="evenodd" clip-rule="evenodd" d="M58.1737 19.9958H52.3506C52.2311 19.9958 52.1303 19.8944 52.1349 19.7789V0.853889C52.1349 0.729024 52.2357 0.632324 52.3552 0.632324H58.1742C61.3035 0.632324 63.8321 1.52281 65.7594 3.30425C67.6868 5.08099 68.6502 7.41117 68.6502 10.2864C68.6502 13.1198 67.6821 15.4504 65.7454 17.2685C63.8087 19.0865 61.2848 19.9958 58.1737 19.9958ZM55.4435 3.44272C55.3193 3.44272 55.2232 3.54412 55.2232 3.66429V16.9831C55.2232 17.1079 55.324 17.2046 55.4435 17.2046H58.142C60.3587 17.2046 62.1344 16.5676 63.4652 15.2847C64.8006 14.006 65.4658 12.3358 65.4658 10.2821C65.4658 8.21012 64.8048 6.54839 63.4834 5.30725C62.1572 4.06564 60.3769 3.44272 58.142 3.44272H55.4435Z" fill="#F50000"/>
<path d="M68.9012 41.396V33.836H60.9492V35.18H67.5012V40.808C66.0732 42.012 63.7492 43.048 61.2572 43.048C56.0212 43.048 52.8572 39.268 52.8572 34.2V34.144C52.8572 29.412 56.1892 25.38 60.9492 25.38C63.9172 25.38 65.7092 26.388 67.2492 27.732L68.2012 26.64C66.2412 25.016 64.2252 24.064 61.0332 24.064C55.1812 24.064 51.3452 28.908 51.3452 34.2V34.256C51.3452 39.772 55.0132 44.336 61.2012 44.336C64.3932 44.336 67.1372 42.964 68.9012 41.396ZM73.9382 37.42H85.7822C85.8102 37.196 85.8102 37.112 85.8102 36.916V36.86C85.8102 32.632 83.2622 29.384 79.2582 29.384C75.3942 29.384 72.4822 32.688 72.4822 36.832V36.888C72.4822 41.34 75.7302 44.336 79.4822 44.336C82.2262 44.336 83.9342 43.216 85.3902 41.648L84.4382 40.808C83.2622 42.068 81.7502 43.048 79.5382 43.048C76.7382 43.048 74.1902 40.976 73.9382 37.42ZM73.9382 36.188C74.1902 33.024 76.3742 30.644 79.2022 30.644C82.4782 30.644 84.1302 33.304 84.3262 36.188H73.9382ZM100.558 44V35.096C100.558 31.4 98.2618 29.496 94.5938 29.496C92.6338 29.496 91.0938 30 89.5258 30.728L90.0298 31.932C91.3458 31.26 92.7738 30.784 94.5098 30.784C97.4498 30.784 99.2138 32.268 99.2138 35.152V35.768C97.8418 35.404 96.4698 35.152 94.4818 35.152C90.7858 35.152 88.2378 36.832 88.2378 39.8V39.856C88.2378 42.824 91.0938 44.336 93.7538 44.336C96.4698 44.336 98.2338 42.992 99.2138 41.62V44H100.558ZM99.2418 38.652C99.2418 41.256 96.7498 43.048 93.8378 43.048C91.6538 43.048 89.6938 41.844 89.6938 39.772V39.716C89.6938 37.728 91.3738 36.384 94.3978 36.384C96.4418 36.384 98.0378 36.72 99.2418 37.028V38.652ZM112.792 31.008V29.496C109.964 29.384 107.584 31.232 106.464 33.78V29.72H105.092V44H106.464V38.148C106.464 33.5 109.348 31.008 112.652 31.008H112.792Z" fill="#0A2A68"/>
<path fill-rule="evenodd" clip-rule="evenodd" d="M92.6853 20.3187C91.1893 20.3187 89.9822 19.9357 89.0691 19.1743C88.1556 18.4082 87.6968 16.5483 87.6973 15.302C87.6973 14.0468 88.1743 13.0502 89.1289 12.3072C90.0788 11.5641 91.3638 11.1904 92.9789 11.1904L97.0035 11.6242C97.1137 11.6242 97.2098 11.5364 97.2192 11.4256C97.1963 10.4797 96.9027 9.73194 96.3888 9.2245C95.8515 8.69875 95.044 8.4401 94.0712 8.4401C92.6713 8.4401 91.6621 8.4448 89.9686 9.05833C89.954 9.06345 89.9395 9.06885 89.9251 9.0742C89.8218 9.11254 89.7241 9.14886 89.6475 9.06771L88.9912 6.94501C88.9132 6.86615 88.8722 6.70467 88.9683 6.65867C90.9143 5.6804 91.896 5.42175 94.4567 5.42175C96.2464 5.42175 97.8755 5.71279 98.9355 6.76945C99.9956 7.82658 100.528 9.30336 100.528 11.1998V19.6958C100.528 19.8206 100.427 19.9173 100.307 19.9173L97.4852 19.9957C97.3611 19.9957 97.2649 19.8943 97.2649 19.7742V18.9433C97.2649 18.7452 97.0311 18.648 96.8934 18.7865C95.8515 19.8066 94.4474 20.3187 92.6853 20.3187ZM96.8154 13.6412C96.8154 13.6412 94.6537 13.3831 93.9288 13.346C92.24 13.2582 90.8219 14.2229 90.8266 15.3992C90.8266 15.9902 91.0516 17.0886 91.5104 17.4299C91.9646 17.7712 92.5751 17.942 93.3323 17.942C94.3835 17.942 95.5028 17.6144 96.2142 16.9685C96.9209 16.3226 97.3018 15.4551 97.3018 14.1675C97.3018 13.7614 97.0451 13.6506 96.8154 13.6412Z" fill="#F50000"/>
<path d="M107.452 19.7742V0.420173C107.452 0.300002 107.356 0.198608 107.232 0.198608H104.607C104.488 0.198608 104.387 0.295308 104.387 0.420173V19.77C104.387 19.8902 104.483 19.9916 104.607 19.9916H107.232C107.355 19.9958 107.452 19.8944 107.452 19.7742Z" fill="#F50000"/>
<path fill-rule="evenodd" clip-rule="evenodd" d="M118.393 5.26075C120.284 5.26075 121.67 5.96676 122.936 7.22667C124.202 8.49128 124.941 10.1061 124.933 11.9805C124.933 12.0364 124.933 12.0916 124.933 12.1466C124.935 12.604 124.937 13.0378 124.818 13.6187C124.795 13.7248 124.708 13.7985 124.602 13.7985H114.502C114.364 13.7985 114.259 13.9276 114.286 14.0661C114.511 15.1133 114.989 15.8564 115.658 16.5718C116.397 17.3609 117.539 17.5825 118.765 17.5825C120.21 17.5825 121.032 16.9873 122.248 15.9583C122.344 15.8752 122.496 15.8935 122.569 15.9996L124.152 17.4811C124.216 17.5731 124.203 17.698 124.12 17.7717C122.537 19.2301 121.032 20.3098 118.678 20.3098C116.503 20.3098 114.672 19.5944 113.194 18.1547C111.717 16.7192 110.978 14.9336 110.978 12.8015C110.941 10.7295 111.661 8.94333 113.139 7.44824C114.621 5.94845 116.37 5.22367 118.393 5.26075ZM114.543 11.7631H121.55C121.678 11.7631 121.78 11.657 121.766 11.5275C121.701 10.5581 121.33 9.65825 120.683 9.06773C119.981 8.43073 119.256 8.11246 118.223 8.11246C117.214 8.11246 116.332 8.43073 115.585 9.06773C114.905 9.64933 114.584 10.5356 114.332 11.4815C114.295 11.6246 114.396 11.7631 114.543 11.7631Z" fill="#F50000"/>
<path fill-rule="evenodd" clip-rule="evenodd" d="M79.3692 20.314C77.194 20.314 75.3633 19.5986 73.8854 18.1589C72.4076 16.7239 71.6645 14.9378 71.6654 12.8015C71.6285 10.7295 72.3488 8.94333 73.8266 7.44824C75.3087 5.94845 77.0572 5.22367 79.0807 5.26075C80.9712 5.26075 82.3571 5.96676 83.6235 7.22667C84.8852 8.48659 85.6241 10.1065 85.6241 11.9847C85.6241 12.0411 85.6243 12.0968 85.6245 12.1522C85.6263 12.6091 85.6279 13.0426 85.5093 13.6229C85.4864 13.729 85.3991 13.8027 85.2936 13.8027H75.1934C75.0557 13.8027 74.9502 13.9318 74.9777 14.0703C75.2022 15.1176 75.6798 15.8607 76.3496 16.576C77.088 17.3651 78.2307 17.5867 79.456 17.5867C80.9017 17.5867 81.7232 16.9915 82.9392 15.9625C83.0353 15.8794 83.187 15.8977 83.2603 16.0038L84.8437 17.4853C84.9076 17.5773 84.8941 17.7022 84.8114 17.7759C83.2286 19.2344 81.7232 20.314 79.3692 20.314ZM76.267 9.07242C75.5878 9.65403 75.2666 10.5403 75.0141 11.4862C74.9772 11.6246 75.0785 11.7631 75.2204 11.7673H82.2278C82.3562 11.7673 82.4575 11.6566 82.4481 11.5322C82.3837 10.5628 82.0121 9.66295 81.3652 9.07242C80.6631 8.43542 79.9382 8.11716 78.9057 8.11716C77.896 8.11716 77.0148 8.43542 76.267 9.07242Z" fill="#F50000"/>
<path d="M136.345 5.38565C136.014 5.31664 135.881 5.38565 135.551 5.38565C134.032 5.38565 132.77 6.85305 131.756 7.9144C131.618 8.05757 131.38 7.9604 131.38 7.76231V5.80578C131.38 5.68561 131.283 5.58421 131.159 5.58421H128.328C128.208 5.58421 128.107 5.68091 128.107 5.80578V19.77C128.107 19.8902 128.204 19.9916 128.328 19.9916H131.366C131.485 19.9916 131.586 19.8949 131.586 19.77V13.1888C131.586 12.1645 132.022 11.0107 132.797 10.3094C133.573 9.60336 134.541 8.92505 135.785 8.92505L136.299 8.81897C136.418 8.81897 136.519 8.72227 136.519 8.5974V5.60252C136.519 5.49596 136.446 5.40865 136.345 5.38565Z" fill="#F50000"/>
<path d="M148.431 13.2536C147.816 12.5983 146.678 12.1598 145.297 11.574L143.925 11.0154C143.205 10.7201 142.709 10.4526 142.438 10.208C142.167 9.96344 142.03 9.66348 142.03 9.31282C142.03 8.39465 142.663 8.06699 143.966 8.06699C145.196 8.06699 146.371 8.45473 147.422 9.28513C147.523 9.36352 147.656 9.36822 147.738 9.27152L148.936 7.3286C149.009 7.24551 149.014 7.11173 148.936 7.03334C147.427 5.63025 145.788 5.37207 143.797 5.37207C142.319 5.37207 141.356 5.63964 140.41 6.39634C139.465 7.14834 138.662 8.29278 138.662 9.56678C138.662 10.545 138.96 11.3529 139.552 11.9894C140.144 12.6264 141.424 13.0832 142.728 13.6324L144.187 14.2506C144.944 14.5642 145.472 14.8411 145.761 15.0857C146.054 15.3303 146.197 15.6485 146.197 16.041C146.197 16.5484 145.981 16.9455 145.554 17.2314C145.128 17.5131 144.572 17.6558 143.893 17.6558C142.567 17.6558 141.392 17.1483 139.722 16.0039C139.616 15.9349 139.488 15.9161 139.405 16.0133L138.185 17.8083C138.111 17.8914 138.097 18.0205 138.175 18.0989C139.795 19.6034 142.039 20.2493 144.013 20.185C145.596 20.1343 146.674 19.9498 147.688 19.1884C148.698 18.404 149.423 17.1577 149.423 15.7687C149.426 14.7534 149.041 13.9089 148.431 13.2536Z" fill="#F50000"/>
<path d="M16.7547 16.5948H16.2038V14.2918C16.2038 14.2181 16.2038 14.1397 16.2085 14.0609L15.745 14.4486C15.7175 14.4716 15.6899 14.481 15.667 14.4857C15.6395 14.4904 15.6166 14.4904 15.5938 14.4857C15.5709 14.481 15.5527 14.4721 15.534 14.4627C15.5158 14.4533 15.5018 14.4397 15.4929 14.4256L15.3184 14.1857L16.3005 13.3459H16.75L16.7547 16.5948Z" fill="#F50000"/>
<path d="M21.9795 16.0775C22.0392 16.0775 22.085 16.0958 22.1219 16.1282C22.1587 16.1606 22.1723 16.2066 22.1723 16.262V16.5944H19.9648V16.4099C19.9648 16.3728 19.9742 16.3315 19.9877 16.2944C20.0013 16.2531 20.0288 16.216 20.061 16.1836L21.0384 15.2007C21.1211 15.1176 21.1944 15.0392 21.2588 14.9608C21.3232 14.8871 21.3783 14.8087 21.4193 14.7345C21.4604 14.6608 21.4973 14.5824 21.5202 14.5083C21.543 14.4299 21.557 14.3515 21.557 14.2637C21.557 14.1853 21.5477 14.1158 21.5248 14.0605C21.502 14.0004 21.4698 13.9497 21.4287 13.9126C21.3876 13.8713 21.3367 13.8436 21.2816 13.8201C21.2266 13.8018 21.1621 13.7877 21.0889 13.7877C21.0244 13.7877 20.9652 13.7971 20.9054 13.8154C20.8503 13.8337 20.7999 13.8614 20.7584 13.8938C20.7168 13.9262 20.6804 13.9675 20.6482 14.0093C20.6207 14.0553 20.5978 14.1018 20.5796 14.1572C20.5521 14.2262 20.5198 14.2726 20.4834 14.2956C20.4424 14.3186 20.3873 14.3233 20.3089 14.3092L20.0199 14.2585C20.0428 14.1018 20.0843 13.968 20.1483 13.8478C20.2127 13.7323 20.2907 13.6309 20.3868 13.5525C20.483 13.4741 20.5931 13.4141 20.7173 13.377C20.841 13.3357 20.9745 13.3169 21.1164 13.3169C21.2634 13.3169 21.4011 13.3399 21.5248 13.3817C21.6485 13.4277 21.7545 13.4878 21.8413 13.5708C21.9286 13.6492 21.9972 13.7464 22.0476 13.8614C22.098 13.9769 22.1209 14.1013 22.1209 14.2398C22.1209 14.3599 22.1027 14.4707 22.0705 14.5721C22.0336 14.6735 21.9879 14.7707 21.9281 14.8627C21.8684 14.9552 21.7998 15.0425 21.7218 15.1303C21.6439 15.218 21.5612 15.3058 21.474 15.3931L20.749 16.1409C20.8177 16.1179 20.8867 16.1038 20.9554 16.0949C21.024 16.0855 21.0884 16.0766 21.1528 16.0766L21.9795 16.0775Z" fill="#F50000"/>
<path d="M16.8406 29.2208C16.891 29.2208 16.9325 29.2344 16.9643 29.2668C16.9965 29.2945 17.01 29.3358 17.01 29.3823V29.6728H15.0645V29.5114C15.0645 29.479 15.0691 29.4424 15.0827 29.41C15.0962 29.3729 15.1195 29.341 15.1471 29.3133L16.0102 28.4453C16.0834 28.3716 16.1479 28.3021 16.2029 28.2331C16.258 28.1641 16.3084 28.0994 16.3453 28.0346C16.3822 27.9698 16.4139 27.9008 16.4326 27.836C16.4508 27.767 16.4648 27.6975 16.4648 27.6238C16.4648 27.5548 16.4555 27.4947 16.4373 27.444C16.4191 27.3934 16.3915 27.3473 16.3546 27.315C16.3178 27.2779 16.2767 27.2549 16.2263 27.2366C16.1759 27.2183 16.1208 27.2089 16.0564 27.2089C15.9966 27.2089 15.9462 27.2183 15.8958 27.2319C15.8454 27.2502 15.8038 27.2732 15.7674 27.3009C15.7306 27.3286 15.6988 27.3657 15.6713 27.4023C15.6437 27.4436 15.6255 27.4854 15.6115 27.5314C15.5887 27.5914 15.5611 27.6328 15.5242 27.6515C15.4874 27.6698 15.4369 27.6745 15.373 27.6651L15.1158 27.6191C15.134 27.4807 15.1755 27.3605 15.2306 27.2591C15.2857 27.1577 15.359 27.0699 15.4416 27.0005C15.5242 26.9314 15.6251 26.8803 15.7306 26.8437C15.8407 26.8066 15.9555 26.793 16.0839 26.793C16.2169 26.793 16.3364 26.8113 16.4419 26.8531C16.5521 26.8901 16.6441 26.9455 16.722 27.0192C16.8 27.0882 16.8597 27.176 16.9008 27.2779C16.9419 27.3797 16.9652 27.4901 16.9652 27.6102C16.9652 27.7163 16.9517 27.8135 16.9195 27.9008C16.8872 27.9886 16.8462 28.0764 16.7958 28.1594C16.7453 28.2425 16.6856 28.3209 16.6123 28.3946C16.5437 28.473 16.4699 28.5467 16.3967 28.6256L15.759 29.2809C15.8188 29.2626 15.8827 29.2485 15.9425 29.2396C16.0022 29.2302 16.062 29.226 16.1171 29.226H16.842V29.2208H16.8406Z" fill="#F50000"/>
<path fill-rule="evenodd" clip-rule="evenodd" d="M22.1507 28.879V28.5974H21.7973V26.8159H21.3385L19.9941 28.6251L20.0446 28.8696C20.0492 28.8973 20.0674 28.925 20.0903 28.9433C20.1178 28.9663 20.1454 28.9757 20.1776 28.9757H21.3707V29.6723H21.7927V28.9757H22.0499C22.0821 28.9757 22.1049 28.9663 22.1231 28.948C22.1413 28.9297 22.1507 28.9067 22.1507 28.879ZM21.3754 27.6651V28.5974H21.3749V28.6021H20.5123L21.3936 27.3745C21.38 27.4806 21.3754 27.5773 21.3754 27.6651Z" fill="#F50000"/>
<path fill-rule="evenodd" clip-rule="evenodd" d="M26.8725 29.6728H27.3496L26.6429 28.6162C26.62 28.5795 26.5924 28.5471 26.5649 28.5195C26.5332 28.4918 26.501 28.4688 26.4687 28.4504C26.5696 28.4185 26.6569 28.3767 26.7348 28.3261C26.8128 28.2707 26.8772 28.2106 26.9323 28.1416C26.9873 28.0721 27.0284 27.9984 27.056 27.9106C27.0835 27.8275 27.097 27.7351 27.097 27.6384C27.097 27.5182 27.0737 27.4074 27.0326 27.306C26.9864 27.2041 26.9225 27.1211 26.8352 27.0474C26.7484 26.9732 26.6335 26.9178 26.4958 26.8765C26.3581 26.8347 26.1929 26.8164 26.0001 26.8164H25.1328V29.6728H25.6607V28.5561H25.8857C25.9408 28.5561 25.9777 28.5655 26.0052 28.5791C26.0328 28.5927 26.0556 28.6204 26.0785 28.6528L26.6751 29.5667C26.7166 29.6357 26.7806 29.6728 26.8725 29.6728ZM26.2526 28.1406C26.1793 28.1641 26.0921 28.1777 25.9912 28.1777V28.1819H25.6607V27.2361H26.0001C26.1975 27.2361 26.3399 27.2731 26.4361 27.3515C26.5327 27.4299 26.5784 27.5407 26.5784 27.6839C26.5784 27.7534 26.5644 27.8224 26.5416 27.8825C26.5187 27.9425 26.4818 27.9932 26.4361 28.0392C26.3857 28.0805 26.3259 28.1176 26.2526 28.1406Z" fill="#F50000"/>
<path d="M25.8759 14.4716C25.9492 14.458 26.0183 14.4439 26.0822 14.4392C26.1466 14.4345 26.2106 14.4298 26.275 14.4298C26.4449 14.4298 26.5962 14.4575 26.7292 14.5082C26.8576 14.5589 26.9677 14.6326 27.0597 14.7204C27.147 14.8129 27.2156 14.919 27.2618 15.0387C27.3075 15.1589 27.3304 15.2926 27.3304 15.4311C27.3304 15.6067 27.2982 15.7635 27.2385 15.9066C27.1787 16.0498 27.0914 16.1742 26.9859 16.2756C26.8758 16.377 26.7521 16.4554 26.6004 16.5108C26.4533 16.5662 26.2927 16.5939 26.1186 16.5939C26.0178 16.5939 25.9212 16.5845 25.8297 16.5615C25.7377 16.5385 25.6509 16.5108 25.5725 16.4784C25.4899 16.4413 25.4166 16.4 25.3475 16.354C25.2789 16.308 25.2191 16.2573 25.1641 16.2061L25.334 15.9662C25.3708 15.9156 25.4166 15.8879 25.4763 15.8879C25.5132 15.8879 25.5543 15.9015 25.5912 15.9249C25.6322 15.9479 25.6738 15.9756 25.7242 16.0033C25.7746 16.031 25.8344 16.0587 25.903 16.0817C25.9716 16.1047 26.0542 16.1188 26.1508 16.1188C26.2517 16.1188 26.3436 16.1005 26.4216 16.0681C26.4995 16.0357 26.5639 15.9897 26.6144 15.9296C26.6648 15.8695 26.7063 15.8005 26.7339 15.7175C26.7614 15.6344 26.7749 15.5466 26.7749 15.4499C26.7749 15.2701 26.7245 15.1316 26.619 15.0298C26.5182 14.9284 26.3618 14.8777 26.1648 14.8777C26.0089 14.8777 25.853 14.9054 25.6878 14.9655L25.3391 14.8641L25.6098 13.2765H27.216V13.5164C27.216 13.5948 27.1932 13.6595 27.1428 13.7102C27.0923 13.7609 27.0097 13.7839 26.8902 13.7839H25.9954L25.8759 14.4716Z" fill="#F50000"/>
<path fill-rule="evenodd" clip-rule="evenodd" d="M155.599 8.16782C156.172 7.58198 156.447 6.90368 156.434 6.1282C156.447 5.3438 156.172 4.6608 155.599 4.07919C155.025 3.49289 154.355 3.21171 153.593 3.22532C152.832 3.21171 152.162 3.49289 151.584 4.07919C151.005 4.6608 150.721 5.3438 150.739 6.1282C150.739 6.9126 151.024 7.5909 151.584 8.16312C152.143 8.73534 152.813 9.02169 153.593 9.02169C154.355 9.0353 155.025 8.75412 155.599 8.16782ZM155.278 4.39323C155.741 4.86359 155.975 5.4405 155.975 6.1282C155.975 6.79759 155.741 7.36511 155.278 7.84534C154.814 8.31615 154.25 8.55133 153.593 8.55133C152.937 8.55133 152.373 8.31615 151.909 7.84534C151.446 7.3745 151.212 6.80228 151.212 6.13336C151.212 5.45459 151.446 4.87814 151.909 4.40262C152.373 3.9271 152.937 3.68723 153.593 3.68723C154.25 3.68723 154.814 3.92241 155.278 4.39323ZM154.158 6.39154L155.098 7.63737H154.497L153.621 6.48824H153.019V7.63737H152.515L152.501 4.60072H153.667C153.979 4.60072 154.231 4.6885 154.424 4.85937C154.617 5.03493 154.713 5.26072 154.713 5.54237C154.713 5.9578 154.529 6.23898 154.158 6.39154ZM153.657 6.04089H153.006V5.04901H153.657C153.827 5.04901 153.96 5.09501 154.057 5.18749C154.153 5.27949 154.199 5.40436 154.199 5.55645C154.199 5.69962 154.153 5.81932 154.057 5.9071C153.96 5.99488 153.827 6.04089 153.657 6.04089Z" fill="#3151A1"/>
<path d="M123.284 43.168C125.144 43.168 126.212 42.364 127.004 41.272L125.252 40.024C124.748 40.636 124.232 41.044 123.356 41.044C122.18 41.044 121.352 40.06 121.352 38.8V38.776C121.352 37.552 122.18 36.556 123.356 36.556C124.16 36.556 124.712 36.94 125.192 37.54L126.944 36.184C126.2 35.152 125.096 34.432 123.38 34.432C120.836 34.432 118.952 36.352 118.952 38.8V38.824C118.952 41.332 120.884 43.168 123.284 43.168Z" fill="#0A2A68"/>
<path d="M127.605 43H129.933V40.456H130.929H130.953L132.645 43H135.333L133.329 40.072C134.373 39.628 135.057 38.776 135.057 37.492V37.468C135.057 36.64 134.805 35.992 134.313 35.512C133.749 34.936 132.861 34.6 131.577 34.6H127.605V43ZM129.933 38.632V36.616H131.457C132.237 36.616 132.717 36.952 132.717 37.612V37.636C132.717 38.248 132.261 38.632 131.469 38.632H129.933Z" fill="#0A2A68"/>
<path d="M135.83 43H138.11V38.2L140.246 41.464H140.294L142.442 38.176V43H144.758V34.6H142.298L140.294 37.852L138.29 34.6H135.83V43Z" fill="#0A2A68"/>
</svg>
