<svg width="38" height="38" viewBox="0 0 38 38" fill="none" xmlns="http://www.w3.org/2000/svg">
<g filter="url(#filter0_d)">
<rect x="8" y="6" width="22" height="22" rx="5" fill="url(#paint0_linear)"/>
<g clip-path="url(#clip0)">
<path d="M22.6328 17.1608V16.0391C22.6328 14.4026 21.5451 13.0156 20.0547 12.5626V12.0547C20.0547 11.4731 19.5816 11 19 11C18.4185 11 17.9453 11.4731 17.9453 12.0547V12.5626C16.4549 13.0156 15.3672 14.4026 15.3672 16.0391V17.1608C15.3672 18.5983 14.8193 19.9613 13.8244 20.9989C13.7269 21.1005 13.6995 21.2506 13.7548 21.3801C13.81 21.5097 13.9373 21.5938 14.0782 21.5938H17.2776C17.4409 22.3951 18.1511 23 19 23C19.8489 23 20.5591 22.3951 20.7225 21.5938H23.9219C24.0628 21.5938 24.19 21.5097 24.2453 21.3801C24.3005 21.2506 24.2731 21.1005 24.1757 20.9989C23.1808 19.9613 22.6328 18.5983 22.6328 17.1608ZM18.6485 12.0547C18.6485 11.8608 18.8062 11.7031 19 11.7031C19.1939 11.7031 19.3516 11.8608 19.3516 12.0547V12.4233C19.2359 12.4122 19.1186 12.4062 19 12.4062C18.8814 12.4062 18.7642 12.4122 18.6485 12.4233V12.0547ZM19 22.2969C18.5417 22.2969 18.1509 22.0029 18.0058 21.5938H19.9942C19.8491 22.0029 19.4583 22.2969 19 22.2969ZM14.8359 20.8906C15.6365 19.8174 16.0703 18.5186 16.0703 17.1608V16.0391C16.0703 14.4236 17.3846 13.1094 19 13.1094C20.6155 13.1094 21.9297 14.4236 21.9297 16.0391V17.1608C21.9297 18.5186 22.3635 19.8174 23.1642 20.8906H14.8359Z" fill="white"/>
<path d="M23.5705 16.0389C23.5705 16.2331 23.7279 16.3905 23.9221 16.3905C24.1162 16.3905 24.2736 16.2331 24.2736 16.0389C24.2736 14.6303 23.7251 13.306 22.7291 12.31C22.5918 12.1727 22.3692 12.1727 22.2319 12.31C22.0946 12.4473 22.0946 12.6699 22.2319 12.8072C23.0951 13.6704 23.5705 14.8181 23.5705 16.0389Z" fill="white"/>
<path d="M14.0781 16.3904C14.2723 16.3904 14.4297 16.233 14.4297 16.0389C14.4297 14.8181 14.9051 13.6704 15.7683 12.8072C15.9056 12.6699 15.9056 12.4473 15.7683 12.31C15.631 12.1727 15.4084 12.1727 15.2711 12.31C14.2751 13.306 13.7266 14.6303 13.7266 16.0389C13.7266 16.233 13.884 16.3904 14.0781 16.3904Z" fill="white"/>
</g>
</g>
<defs>
<filter id="filter0_d" x="0" y="0" width="38" height="38" filterUnits="userSpaceOnUse" color-interpolation-filters="sRGB">
<feFlood flood-opacity="0" result="BackgroundImageFix"/>
<feColorMatrix in="SourceAlpha" type="matrix" values="0 0 0 0 0 0 0 0 0 0 0 0 0 0 0 0 0 0 127 0"/>
<feOffset dy="2"/>
<feGaussianBlur stdDeviation="4"/>
<feColorMatrix type="matrix" values="0 0 0 0 0.8 0 0 0 0 0.360784 0 0 0 0 0.690196 0 0 0 0.2 0"/>
<feBlend mode="normal" in2="BackgroundImageFix" result="effect1_dropShadow"/>
<feBlend mode="normal" in="SourceGraphic" in2="effect1_dropShadow" result="shape"/>
</filter>
<linearGradient id="paint0_linear" x1="10.9406" y1="-6.24529" x2="33.8615" y2="-0.705517" gradientUnits="userSpaceOnUse">
<stop stop-color="#FF424F"/>
<stop offset="1" stop-color="#C45FBF"/>
</linearGradient>
<clipPath id="clip0">
<rect width="12" height="12" fill="white" transform="translate(13 11)"/>
</clipPath>
</defs>
</svg>
