<svg width="42" height="34" viewBox="0 0 42 34" fill="none" xmlns="http://www.w3.org/2000/svg">
<g clip-path="url(#clip0)">
<path d="M41.6086 2.45248V31.6312C41.6086 32.8295 40.6332 33.8049 39.4349 33.8049H2.20209C1.00373 33.8049 0.0283203 32.8295 0.0283203 31.6312V2.67543C0.0283203 1.28199 1.14307 0.167236 2.53652 0.167236H39.2955C40.5775 0.167236 41.6086 1.19838 41.6086 2.45248Z" fill="#DEECFF"/>
<path d="M41.5803 2.28525V4.51475H0V2.5082C0 1.11475 1.11475 0 2.5082 0H39.2672C40.5492 0 41.5803 1.03115 41.5803 2.28525Z" fill="#926CF6"/>
<path d="M3.00982 3.28844C3.44078 3.28844 3.79015 2.93907 3.79015 2.50811C3.79015 2.07715 3.44078 1.72778 3.00982 1.72778C2.57886 1.72778 2.22949 2.07715 2.22949 2.50811C2.22949 2.93907 2.57886 3.28844 3.00982 3.28844Z" fill="white"/>
<path d="M5.32281 3.28844C5.75377 3.28844 6.10314 2.93907 6.10314 2.50811C6.10314 2.07715 5.75377 1.72778 5.32281 1.72778C4.89185 1.72778 4.54248 2.07715 4.54248 2.50811C4.54248 2.93907 4.89185 3.28844 5.32281 3.28844Z" fill="white"/>
<path d="M7.60845 3.28844C8.03942 3.28844 8.38878 2.93907 8.38878 2.50811C8.38878 2.07715 8.03942 1.72778 7.60845 1.72778C7.17749 1.72778 6.82812 2.07715 6.82812 2.50811C6.82812 2.93907 7.17749 3.28844 7.60845 3.28844Z" fill="white"/>
<path d="M12.9872 7.85901H3.48389V18.5606H12.9872V7.85901Z" stroke="#926CF6" stroke-opacity="0.19" stroke-width="0.836066" stroke-linecap="round" stroke-linejoin="round"/>
<path d="M8.22102 13.5722C9.37539 13.5722 10.3112 12.6364 10.3112 11.482C10.3112 10.3276 9.37539 9.39185 8.22102 9.39185C7.06666 9.39185 6.13086 10.3276 6.13086 11.482C6.13086 12.6364 7.06666 13.5722 8.22102 13.5722Z" fill="white"/>
<path d="M5.35059 14.854H10.9522" stroke="#926CF6" stroke-opacity="0.19" stroke-width="0.836066" stroke-linecap="round" stroke-linejoin="round"/>
<path d="M6.60498 16.359H9.69842" stroke="#926CF6" stroke-opacity="0.19" stroke-width="0.836066" stroke-linecap="round" stroke-linejoin="round"/>
<path d="M24.6639 7.85901H15.1606V18.5606H24.6639V7.85901Z" stroke="#926CF6" stroke-opacity="0.19" stroke-width="0.836066" stroke-linecap="round" stroke-linejoin="round"/>
<path d="M19.8988 13.5722C21.0531 13.5722 21.9889 12.6364 21.9889 11.482C21.9889 10.3276 21.0531 9.39185 19.8988 9.39185C18.7444 9.39185 17.8086 10.3276 17.8086 11.482C17.8086 12.6364 18.7444 13.5722 19.8988 13.5722Z" fill="white"/>
<path d="M17 14.854H22.6295" stroke="#926CF6" stroke-opacity="0.19" stroke-width="0.836066" stroke-linecap="round" stroke-linejoin="round"/>
<path d="M18.2539 16.359H21.3752" stroke="#926CF6" stroke-opacity="0.19" stroke-width="0.836066" stroke-linecap="round" stroke-linejoin="round"/>
<path d="M39.1 7.85901H28.1196V24.0508H39.1V7.85901Z" stroke="#926CF6" stroke-opacity="0.19" stroke-width="0.836066" stroke-linecap="round" stroke-linejoin="round"/>
<path d="M38.459 30.7393H28.7606C28.3983 30.7393 28.1196 30.4606 28.1196 30.0983V26.6426C28.1196 26.2803 28.3983 26.0016 28.7606 26.0016H38.459C38.8213 26.0016 39.1 26.2803 39.1 26.6426V30.0983C39.0721 30.4606 38.7934 30.7393 38.459 30.7393Z" fill="white"/>
<path d="M12.9872 20.3164H3.48389V31.018H12.9872V20.3164Z" stroke="#926CF6" stroke-opacity="0.19" stroke-width="0.836066" stroke-linecap="round" stroke-linejoin="round"/>
<path d="M8.22102 26.0296C9.37539 26.0296 10.3112 25.0938 10.3112 23.9394C10.3112 22.785 9.37539 21.8492 8.22102 21.8492C7.06666 21.8492 6.13086 22.785 6.13086 23.9394C6.13086 25.0938 7.06666 26.0296 8.22102 26.0296Z" fill="white"/>
<path d="M5.35059 27.3115H10.9522" stroke="#926CF6" stroke-opacity="0.19" stroke-width="0.836066" stroke-linecap="round" stroke-linejoin="round"/>
<path d="M6.60498 28.8164H9.69842" stroke="#926CF6" stroke-opacity="0.19" stroke-width="0.836066" stroke-linecap="round" stroke-linejoin="round"/>
<path d="M24.6639 20.3164H15.1606V31.018H24.6639V20.3164Z" stroke="#926CF6" stroke-opacity="0.19" stroke-width="0.836066" stroke-linecap="round" stroke-linejoin="round"/>
<path d="M19.8988 26.0296C21.0531 26.0296 21.9889 25.0938 21.9889 23.9394C21.9889 22.785 21.0531 21.8492 19.8988 21.8492C18.7444 21.8492 17.8086 22.785 17.8086 23.9394C17.8086 25.0938 18.7444 26.0296 19.8988 26.0296Z" fill="white"/>
<path d="M17 27.3115H22.6295" stroke="#926CF6" stroke-opacity="0.19" stroke-width="0.836066" stroke-linecap="round" stroke-linejoin="round"/>
<path d="M18.2539 28.8164H21.3752" stroke="#926CF6" stroke-opacity="0.19" stroke-width="0.836066" stroke-linecap="round" stroke-linejoin="round"/>
<path d="M32.0491 13.0427H30.0705C29.8196 13.0427 29.5967 12.8476 29.5967 12.5689V10.5902C29.5967 10.3394 29.7918 10.1165 30.0705 10.1165H32.0491C32.3 10.1165 32.5229 10.3115 32.5229 10.5902V12.5689C32.5229 12.8476 32.3278 13.0427 32.0491 13.0427Z" fill="white"/>
<path d="M33.7773 10.7853H37.0659" stroke="#926CF6" stroke-opacity="0.19" stroke-width="0.836066" stroke-linecap="round" stroke-linejoin="round"/>
<path d="M33.7773 12.3458H35.3659" stroke="#926CF6" stroke-opacity="0.19" stroke-width="0.836066" stroke-linecap="round" stroke-linejoin="round"/>
<path d="M32.0491 17.5575H30.0705C29.8196 17.5575 29.5967 17.3624 29.5967 17.0837V15.105C29.5967 14.8542 29.7918 14.6312 30.0705 14.6312H32.0491C32.3 14.6312 32.5229 14.8263 32.5229 15.105V17.0837C32.5229 17.3345 32.3278 17.5575 32.0491 17.5575Z" fill="white"/>
<path d="M33.7773 15.3H37.0659" stroke="#926CF6" stroke-opacity="0.19" stroke-width="0.836066" stroke-linecap="round" stroke-linejoin="round"/>
<path d="M33.7773 16.8606H35.3659" stroke="#926CF6" stroke-opacity="0.19" stroke-width="0.836066" stroke-linecap="round" stroke-linejoin="round"/>
<path d="M32.0491 22.0722H30.0705C29.8196 22.0722 29.5967 21.8771 29.5967 21.5985V19.6198C29.5967 19.3689 29.7918 19.146 30.0705 19.146H32.0491C32.3 19.146 32.5229 19.3411 32.5229 19.6198V21.5985C32.5229 21.8493 32.3278 22.0722 32.0491 22.0722Z" fill="white"/>
<path d="M33.7773 19.8147H37.0659" stroke="#926CF6" stroke-opacity="0.19" stroke-width="0.836066" stroke-linecap="round" stroke-linejoin="round"/>
<path d="M33.7773 21.3475H35.3659" stroke="#926CF6" stroke-opacity="0.19" stroke-width="0.836066" stroke-linecap="round" stroke-linejoin="round"/>
<path d="M36.5357 28.6491L35.5046 29.6803C35.3652 29.8196 35.1701 29.8196 35.0308 29.6803C34.8915 29.5409 34.8915 29.3458 35.0308 29.2065L35.5046 28.7327H31.2685C31.1013 28.7327 30.9341 28.5934 30.9341 28.3983C30.9341 28.2311 31.0734 28.0639 31.2685 28.0639H35.5046L35.0308 27.5901C34.8915 27.4507 34.8915 27.2557 35.0308 27.1163C35.0865 27.0606 35.1701 27.0327 35.2538 27.0327C35.3374 27.0327 35.421 27.0606 35.4767 27.1163L36.5079 28.1475C36.5636 28.2032 36.5915 28.2868 36.5915 28.3704C36.6472 28.5098 36.5915 28.5934 36.5357 28.6491Z" fill="#926CF6"/>
</g>
<defs>
<clipPath id="clip0">
<rect width="41.8033" height="34" fill="white"/>
</clipPath>
</defs>
</svg>
