<svg width="37" height="36" viewBox="0 0 37 36" fill="none" xmlns="http://www.w3.org/2000/svg">
<path d="M19.8973 35.8225C29.2571 35.8225 36.8448 28.3879 36.8448 19.2168C36.8448 10.0458 29.2571 2.61121 19.8973 2.61121C10.5374 2.61121 2.94971 10.0458 2.94971 19.2168C2.94971 28.3879 10.5374 35.8225 19.8973 35.8225Z" fill="#926CF6"/>
<path d="M19.8969 30.0423C25.9987 30.0423 30.9451 25.1956 30.9451 19.217C30.9451 13.2383 25.9987 8.3916 19.8969 8.3916C13.7951 8.3916 8.84863 13.2383 8.84863 19.217C8.84863 25.1956 13.7951 30.0423 19.8969 30.0423Z" fill="#764FDD"/>
<path d="M19.897 24.2113C22.7121 24.2113 24.9942 21.9752 24.9942 19.2169C24.9942 16.4586 22.7121 14.2225 19.897 14.2225C17.0819 14.2225 14.7998 16.4586 14.7998 19.2169C14.7998 21.9752 17.0819 24.2113 19.897 24.2113Z" fill="#926CF6"/>
<path d="M12.7558 11.1549L20.2075 18.4563C20.5439 18.7859 20.5439 19.3183 20.2075 19.6479C19.8712 19.9775 19.3278 19.9775 18.9914 19.6479L2.61311 3.59999C2.27675 3.27041 2.27675 2.73802 2.61311 2.40844C2.94948 2.07886 3.49283 2.07886 3.8292 2.40844L9.46976 7.9352" fill="#C5DCFA"/>
<path d="M11.281 7.58026L11.3069 7.04787C11.3586 6.33801 11.0999 5.6535 10.5824 5.17181L5.48517 0.177446C5.12294 -0.177483 4.50196 0.0506857 4.47608 0.557728L4.24322 4.05632L0.672587 4.28449C0.155104 4.30984 -0.0518887 4.91829 0.284475 5.27322L5.38168 10.2676C5.89916 10.7746 6.59776 11.0282 7.29636 10.9774L10.2201 10.7746C10.6859 10.7493 11.074 10.369 11.0999 9.91266L11.281 7.58026Z" fill="#21D3AC"/>
</svg>
