<svg width="41" height="40" viewBox="0 0 41 40" fill="none" xmlns="http://www.w3.org/2000/svg">
<path d="M20.9002 34.3712C28.9796 34.3712 35.5292 27.8216 35.5292 19.7422C35.5292 11.6629 28.9796 5.11328 20.9002 5.11328C12.8209 5.11328 6.27124 11.6629 6.27124 19.7422C6.27124 27.8216 12.8209 34.3712 20.9002 34.3712Z" fill="#DEECFF"/>
<path d="M20.9 0C9.72015 0 0.800049 8.80117 0.800049 19.7432C0.800049 30.6852 9.83908 39.4863 20.9 39.4863C32.0799 39.4863 41 30.6852 41 19.7432C41 8.80117 32.0799 0 20.9 0ZM20.9 34.0153C12.8125 34.0153 6.27104 27.5928 6.27104 19.7432C6.27104 11.7745 12.8125 5.471 20.9 5.471C28.9876 5.471 35.529 11.8935 35.529 19.7432C35.529 27.7118 28.9876 34.0153 20.9 34.0153Z" fill="#926CF6"/>
<path d="M23.5166 2.25977H18.2834V36.513H23.5166V2.25977Z" fill="#926CF6"/>
<path d="M22.8568 20.8258L19.4558 16.8486L4.72218 29.4478L8.12319 33.425L22.8568 20.8258Z" fill="#926CF6"/>
<path d="M33.0314 32.7653L36.4324 28.7881L21.6987 16.1889L18.2977 20.1661L33.0314 32.7653Z" fill="#926CF6"/>
</svg>
