<svg width="44" height="42" viewBox="0 0 44 42" fill="none" xmlns="http://www.w3.org/2000/svg">
<path d="M43.4612 30.9015V39.0593C43.2306 41.0483 33.5162 41.0483 33.3721 39.0593V30.9015C33.3721 30.4114 33.9774 30.0944 34.4386 29.9214C34.5251 29.8926 35.1016 29.6908 35.1881 29.6908C38.0996 28.8837 43.4612 29.4602 43.4612 30.9015Z" fill="white"/>
<path d="M43.4612 30.9017V39.0595C43.4612 40.9909 33.5162 41.1062 33.3721 39.0595V30.9017C33.3721 30.4117 33.9774 30.0946 34.4386 29.9216C37.6095 28.7398 43.4612 29.4316 43.4612 30.9017Z" fill="#21D3AC"/>
<path d="M43.4612 32.4583V33.1789C41.4722 34.5337 35.3611 34.5337 33.3721 33.1789V32.4583C33.6892 33.0059 35.5629 33.6689 38.4166 33.6689C41.2993 33.6689 43.1441 33.0059 43.4612 32.4583Z" fill="#22BC9A"/>
<path d="M43.4612 34.1879V34.9085C41.4722 36.2633 35.3611 36.2633 33.3721 34.9085V34.1879C33.6892 34.7356 35.5629 35.3986 38.4166 35.3986C41.2993 35.4274 43.1441 34.7644 43.4612 34.1879Z" fill="#22BC9A"/>
<path d="M43.4612 35.9462V36.6668C41.4722 38.0216 35.3322 38.0216 33.3721 36.6668V35.9462C33.6892 36.4939 35.5917 37.1569 38.4166 37.1569C41.2993 37.1569 43.1441 36.4939 43.4612 35.9462Z" fill="#22BC9A"/>
<path d="M43.4612 37.6757V38.3963C41.501 39.7511 35.3611 39.7511 33.3721 38.3963V37.6757C33.6892 38.2234 35.5629 38.8864 38.4166 38.8864C41.3281 38.8864 43.1441 38.1945 43.4612 37.6757Z" fill="#22BC9A"/>
<path d="M38.4166 32.4294C41.2027 32.4294 43.4612 31.7325 43.4612 30.8728C43.4612 30.0131 41.2027 29.3162 38.4166 29.3162C35.6306 29.3162 33.3721 30.0131 33.3721 30.8728C33.3721 31.7325 35.6306 32.4294 38.4166 32.4294Z" fill="#6097FD"/>
<path d="M43.5188 24.0121V32.1699C43.2882 34.1589 33.5738 34.1589 33.4297 32.1699V24.0121C33.4297 23.522 34.035 23.205 34.4963 23.032C34.5827 23.0032 35.1593 22.8014 35.2457 22.8014C38.1572 21.9943 43.5188 22.5708 43.5188 24.0121Z" fill="white"/>
<path d="M43.5188 24.0122V32.17C43.5188 34.1013 33.5738 34.2166 33.4297 32.17V24.0122C33.4297 23.5221 34.035 23.2051 34.4963 23.0321C37.6671 21.8502 43.5188 22.5421 43.5188 24.0122Z" fill="#21D3AC"/>
<path d="M43.5188 25.5687V26.2894C41.5298 27.6442 35.4187 27.6442 33.4297 26.2894V25.5687C33.7468 26.1164 35.6205 26.7794 38.4743 26.7794C41.3569 26.7794 43.2017 26.1164 43.5188 25.5687Z" fill="#22BC9A"/>
<path d="M43.5188 27.2983V28.019C41.5298 29.3738 35.4187 29.3738 33.4297 28.019V27.2983C33.7468 27.846 35.6205 28.509 38.4743 28.509C41.3569 28.509 43.2017 27.846 43.5188 27.2983Z" fill="#22BC9A"/>
<path d="M43.5188 29.028V29.7486C41.5298 31.1034 35.3899 31.1034 33.4297 29.7486V29.028C33.7468 29.5757 35.6493 30.2387 38.4743 30.2387C41.3569 30.2387 43.2017 29.5757 43.5188 29.028Z" fill="#22BC9A"/>
<path d="M43.5188 30.7574V31.4781C41.5587 32.8329 35.4187 32.8329 33.4297 31.4781V30.7574C33.7468 31.3051 35.6205 31.9681 38.4743 31.9681C41.3857 31.9681 43.2017 31.3051 43.5188 30.7574Z" fill="#22BC9A"/>
<path d="M38.4743 25.54C41.2603 25.54 43.5188 24.8431 43.5188 23.9834C43.5188 23.1237 41.2603 22.4268 38.4743 22.4268C35.6882 22.4268 33.4297 23.1237 33.4297 23.9834C33.4297 24.8431 35.6882 25.54 38.4743 25.54Z" fill="#6097FD"/>
<path d="M43.5188 15.4219V23.5797C43.2882 25.5399 33.5738 25.5687 33.4297 23.5797V15.4219C33.4297 14.9319 34.035 14.6148 34.4963 14.4418C34.5827 14.413 35.1593 14.2112 35.2457 14.2112C38.0995 13.4329 43.5188 13.9806 43.5188 15.4219Z" fill="white"/>
<path d="M43.5188 15.422V24.0987C43.5188 24.6464 42.4234 25.0788 41.8757 25.2229C38.8778 26.0588 33.5162 25.5112 33.4297 24.0987V15.422C33.4297 14.932 34.035 14.6149 34.4963 14.4419C37.6671 13.2889 43.5188 13.9519 43.5188 15.422Z" fill="#21D3AC"/>
<path d="M43.5188 17.0074V17.7281C41.5298 19.0829 35.4187 19.0829 33.4297 17.7281V17.0074C33.7468 17.5551 35.6205 18.2181 38.4743 18.2181C41.3569 18.2181 43.2017 17.5551 43.5188 17.0074Z" fill="#22BC9A"/>
<path d="M43.5188 18.7369V19.4576C41.5298 20.8124 35.4187 20.8124 33.4297 19.4576V18.7369C33.7468 19.2846 35.6205 19.9476 38.4743 19.9476C41.3569 19.9476 43.2017 19.2846 43.5188 18.7369Z" fill="#22BC9A"/>
<path d="M43.5188 20.4666V21.1872C41.5298 22.542 35.3899 22.542 33.4297 21.1872V20.4666C33.7468 21.0142 35.6493 21.6772 38.4743 21.6772C41.3569 21.6772 43.2017 21.0142 43.5188 20.4666Z" fill="#22BC9A"/>
<path d="M43.5188 22.196V22.9167C41.5587 24.2715 35.4187 24.2715 33.4297 22.9167V22.196C33.7468 22.7437 35.6205 23.4067 38.4743 23.4067C41.3857 23.4067 43.2017 22.7437 43.5188 22.196Z" fill="#22BC9A"/>
<path d="M43.5188 23.7815V24.5021C41.5587 25.857 35.4187 25.857 33.4297 24.5021V23.7815C33.7468 24.3292 35.6205 24.9922 38.4743 24.9922C41.3857 24.9922 43.2017 24.3292 43.5188 23.7815Z" fill="#22BC9A"/>
<path d="M38.4743 16.9498C41.2603 16.9498 43.5188 16.2529 43.5188 15.3932C43.5188 14.5335 41.2603 13.8365 38.4743 13.8365C35.6882 13.8365 33.4297 14.5335 33.4297 15.3932C33.4297 16.2529 35.6882 16.9498 38.4743 16.9498Z" fill="#BBF7E9"/>
<path d="M37.6379 32.487V40.5294C37.4073 42.4896 27.837 42.4896 27.7217 40.5294V32.487C27.7217 31.9969 28.327 31.7087 28.7882 31.5069C28.8747 31.478 29.4512 31.2763 29.5377 31.2763C32.3627 30.498 37.6379 31.0745 37.6379 32.487Z" fill="white"/>
<path d="M37.6379 32.487V40.5295C37.6379 42.4321 27.837 42.5474 27.7217 40.5295V32.487C27.7217 31.997 28.327 31.7087 28.7882 31.507C31.8726 30.3827 37.6379 31.0457 37.6379 32.487Z" fill="#21D3AC"/>
<path d="M37.6379 34.0148V34.7066C35.7065 36.0614 29.653 36.0614 27.7217 34.7066V34.0148C28.0388 34.5625 29.8548 35.1966 32.6798 35.1966C35.5047 35.2255 37.3496 34.5625 37.6379 34.0148Z" fill="#22BC9A"/>
<path d="M37.6379 35.7445V36.4363C35.7065 37.7912 29.653 37.7912 27.7217 36.4363V35.7445C28.0388 36.2922 29.8548 36.9264 32.6798 36.9264C35.5047 36.9264 37.3496 36.2922 37.6379 35.7445Z" fill="#22BC9A"/>
<path d="M37.6379 37.4452V38.137C35.6777 39.4919 29.6242 39.4919 27.7217 38.137V37.4164C28.0388 37.9641 29.8836 38.6271 32.6798 38.6271C35.5047 38.6271 37.3496 37.9929 37.6379 37.4452Z" fill="#22BC9A"/>
<path d="M37.6379 39.1458V39.8376C35.7065 41.1636 29.653 41.1924 27.7217 39.8376V39.1458C28.0388 39.6934 29.8548 40.3276 32.6798 40.3276C35.5624 40.3276 37.3496 39.6646 37.6379 39.1458Z" fill="#22BC9A"/>
<path d="M32.6798 33.986C35.4181 33.986 37.6379 33.302 37.6379 32.4582C37.6379 31.6144 35.4181 30.9304 32.6798 30.9304C29.9415 30.9304 27.7217 31.6144 27.7217 32.4582C27.7217 33.302 29.9415 33.986 32.6798 33.986Z" fill="#6097FD"/>
<path d="M37.6379 27.3271V35.3696C37.4073 37.3298 27.837 37.3298 27.7217 35.3696V27.3271C27.7217 26.8371 28.327 26.5488 28.7882 26.347C28.8747 26.3182 29.4512 26.1164 29.5377 26.1164C32.3627 25.367 37.6379 25.9146 37.6379 27.3271Z" fill="white"/>
<path d="M37.6379 27.3271V35.3696C37.6379 37.2721 27.837 37.3874 27.7217 35.3696V27.3271C27.7217 26.8371 28.327 26.5488 28.7882 26.347C31.8726 25.2228 37.6379 25.8858 37.6379 27.3271Z" fill="#21D3AC"/>
<path d="M37.6379 28.8838V29.5756C35.7065 30.9304 29.653 30.9304 27.7217 29.5756V28.8838C28.0388 29.4315 29.8548 30.0657 32.6798 30.0657C35.5047 30.0657 37.3496 29.4315 37.6379 28.8838Z" fill="#22BC9A"/>
<path d="M37.6379 30.5846V31.2764C35.7065 32.6312 29.653 32.6312 27.7217 31.2764V30.5846C28.0388 31.1323 29.8548 31.7665 32.6798 31.7665C35.5047 31.7953 37.3496 31.1323 37.6379 30.5846Z" fill="#22BC9A"/>
<path d="M37.6379 32.2853V32.9771C35.6777 34.332 29.6242 34.332 27.7217 32.9771V32.2565C28.0388 32.8042 29.8836 33.4672 32.6798 33.4672C35.5047 33.496 37.3496 32.833 37.6379 32.2853Z" fill="#22BC9A"/>
<path d="M37.6379 33.9861V34.6779C35.7065 36.0039 29.653 36.0327 27.7217 34.6779V33.9861C28.0388 34.5338 29.8548 35.168 32.6798 35.168C35.5624 35.1968 37.3496 34.5338 37.6379 33.9861Z" fill="#22BC9A"/>
<path d="M32.6798 28.8262C35.4181 28.8262 37.6379 28.1422 37.6379 27.2984C37.6379 26.4546 35.4181 25.7706 32.6798 25.7706C29.9415 25.7706 27.7217 26.4546 27.7217 27.2984C27.7217 28.1422 29.9415 28.8262 32.6798 28.8262Z" fill="#BBF7E9"/>
<path d="M36.9462 10.8459L22.1479 25.6659V41.0029C22.1479 41.7168 21.3381 42.1353 20.7491 41.6922L16.6262 38.5165C16.0126 38.0488 15.6445 37.3102 15.6445 36.5224V25.6659L0.846191 10.8459" fill="white"/>
<path d="M36.8479 10.8459C36.8234 10.9198 36.7988 10.9937 36.7252 11.0675L36.6516 11.1414L28.1849 19.6345L22.1723 25.6659V41.0029C22.1723 41.7168 21.3624 42.1353 20.7735 41.6922L16.6505 38.5165C16.037 38.0488 15.6689 37.3102 15.6689 36.5224V25.6659L9.43545 19.413L1.21416 11.166L1.09146 11.0429L1.06691 11.0183C1.01783 10.969 0.993291 10.8952 0.96875 10.8459H36.8479Z" fill="#DD73DE"/>
<path d="M32.946 14.7603L22.1725 25.666V41.003C22.1725 41.7169 21.3626 42.1354 20.7736 41.6923L16.6507 38.5166C16.0372 38.0488 15.6691 37.3103 15.6691 36.5225V25.666L10.9326 20.6932C18.7612 24.7798 29.2403 18.9207 32.946 14.7603Z" fill="#EE83EF"/>
<path d="M36.8479 10.7721C36.8479 10.7967 36.8479 10.8213 36.8479 10.8459C36.8234 10.9198 36.7988 10.9936 36.7252 11.0675L36.6516 11.1413C35.3264 12.2984 27.8904 13.1846 18.9083 13.1846C9.9999 13.1846 2.61301 12.323 1.21416 11.1659C1.16508 11.1167 1.116 11.0675 1.09146 11.0429L1.06691 11.0182C1.01783 10.969 0.993291 10.8951 0.96875 10.8459C0.96875 10.8213 0.96875 10.7967 0.96875 10.7721C0.96875 9.44269 8.99371 8.3595 18.9083 8.3595C28.823 8.3595 36.8479 9.44269 36.8479 10.7721Z" fill="#CB6FCC"/>
<path d="M21.2653 9.16676V10.781C21.0058 13.2024 9.15829 13.2024 9.01416 10.781V9.16676C9.01416 8.56141 9.76364 8.18667 10.3113 7.98489C10.4266 7.95606 11.1185 7.69663 11.2338 7.69663C14.7506 6.74537 21.2653 7.43719 21.2653 9.16676Z" fill="white"/>
<path d="M21.2653 9.16674V10.781C21.2653 13.1447 9.15829 13.2601 9.01416 10.781V9.16674C9.01416 8.56139 9.76364 8.18665 10.3113 7.98487C14.1164 6.57239 21.2653 7.37952 21.2653 9.16674Z" fill="#C5DCFA"/>
<path d="M15.1253 11.0116C18.5163 11.0116 21.2653 10.1727 21.2653 9.13786C21.2653 8.10304 18.5163 7.26416 15.1253 7.26416C11.7343 7.26416 8.98535 8.10304 8.98535 9.13786C8.98535 10.1727 11.7343 11.0116 15.1253 11.0116Z" fill="#E1ECFA"/>
<path d="M27.0876 11.0404L26.2805 12.4529C24.8392 14.4131 14.6059 8.50373 15.6725 6.31294L16.4796 4.90046C16.7679 4.38159 17.6038 4.43924 18.2092 4.52572C18.3245 4.55455 19.0451 4.66985 19.1604 4.72751C22.6484 5.67877 27.9524 9.54147 27.0876 11.0404Z" fill="white"/>
<path d="M27.0882 11.0404L26.2811 12.4529C25.0992 14.4996 14.5777 8.53255 15.6731 6.31294L16.4802 4.90046C16.7685 4.38159 17.6044 4.43924 18.2098 4.52572C22.2166 5.21755 27.9818 9.48382 27.0882 11.0404Z" fill="#C5DCFA"/>
<path d="M27.0989 11.054C27.617 10.1583 25.6576 8.05576 22.7223 6.35788C19.7871 4.66 16.9875 4.00974 16.4694 4.90547C15.9513 5.80121 17.9107 7.90375 20.846 9.60162C23.7813 11.2995 26.5808 11.9498 27.0989 11.054Z" fill="#E1ECFA"/>
<path d="M28.8404 10.6772C28.2708 10.8824 27.6894 10.9692 27.1328 10.9552C26.1333 8.43517 25.6078 5.52991 26.6091 5.07738L31.2196 3.41685C31.4279 3.74012 31.6092 4.07316 31.7459 4.45285C32.6814 6.96531 31.3626 9.76884 28.8404 10.6772Z" fill="#BAD3F5"/>
<path d="M27.3472 9.68558C30.0218 9.68558 32.19 7.51739 32.19 4.84279C32.19 2.16819 30.0218 0 27.3472 0C24.6726 0 22.5044 2.16819 22.5044 4.84279C22.5044 7.51739 24.6726 9.68558 27.3472 9.68558Z" fill="#E1ECFA"/>
</svg>
