<svg width="170" height="170" viewBox="0 0 170 170" fill="none" xmlns="http://www.w3.org/2000/svg">
<g filter="url(#filter0_d)">
<circle cx="85" cy="70" r="55" fill="url(#paint0_linear)"/>
</g>
<g clip-path="url(#clip0)" filter="url(#filter1_d)">
<path d="M112.256 66.2519C112.255 66.2506 112.253 66.2493 112.252 66.248L88.748 42.7448C87.7461 41.7426 86.4141 41.1904 84.9973 41.1904C83.5805 41.1904 82.2485 41.7421 81.2462 42.7444L57.7545 66.2357C57.7466 66.2436 57.7383 66.2519 57.7308 66.2598C55.6735 68.329 55.677 71.6863 57.7413 73.7502C58.6838 74.6935 59.9288 75.24 61.2603 75.2971C61.3144 75.3024 61.3693 75.305 61.4243 75.305H62.3606V92.6019C62.3606 96.0246 65.1459 98.8095 68.5691 98.8095H77.7646C78.697 98.8095 79.4527 98.0538 79.4527 97.1214V83.5607C79.4527 81.9988 80.7235 80.7284 82.2854 80.7284H87.7092C89.2711 80.7284 90.5415 81.9988 90.5415 83.5607V97.1214C90.5415 98.0538 91.2976 98.8095 92.2296 98.8095H101.425C104.849 98.8095 107.634 96.0246 107.634 92.6019V75.305H108.502C109.919 75.305 111.251 74.7533 112.253 73.751C114.319 71.6836 114.321 68.3207 112.256 66.2519Z" fill="white"/>
<path d="M112.256 66.2519C112.255 66.2506 112.253 66.2493 112.252 66.248L88.7482 42.7448C87.7463 41.7426 86.4143 41.1904 84.9975 41.1904H84.9971V80.7284H87.7094C89.2713 80.7284 90.5417 81.9988 90.5417 83.5607V97.1214C90.5417 98.0538 91.2978 98.8095 92.2298 98.8095H101.425C104.849 98.8095 107.634 96.0246 107.634 92.6019V75.305H108.502C109.919 75.305 111.251 74.7533 112.253 73.751C114.32 71.6836 114.321 68.3207 112.256 66.2519Z" fill="#FFDAF1"/>
</g>
<defs>
<filter id="filter0_d" x="0" y="0" width="170" height="170" filterUnits="userSpaceOnUse" color-interpolation-filters="sRGB">
<feFlood flood-opacity="0" result="BackgroundImageFix"/>
<feColorMatrix in="SourceAlpha" type="matrix" values="0 0 0 0 0 0 0 0 0 0 0 0 0 0 0 0 0 0 127 0"/>
<feOffset dy="15"/>
<feGaussianBlur stdDeviation="15"/>
<feColorMatrix type="matrix" values="0 0 0 0 0.905882 0 0 0 0 0.309804 0 0 0 0 0.494118 0 0 0 0.25 0"/>
<feBlend mode="normal" in2="BackgroundImageFix" result="effect1_dropShadow"/>
<feBlend mode="normal" in="SourceGraphic" in2="effect1_dropShadow" result="shape"/>
</filter>
<filter id="filter1_d" x="46.1904" y="39.1904" width="77.619" height="77.619" filterUnits="userSpaceOnUse" color-interpolation-filters="sRGB">
<feFlood flood-opacity="0" result="BackgroundImageFix"/>
<feColorMatrix in="SourceAlpha" type="matrix" values="0 0 0 0 0 0 0 0 0 0 0 0 0 0 0 0 0 0 127 0"/>
<feOffset dy="8"/>
<feGaussianBlur stdDeviation="5"/>
<feColorMatrix type="matrix" values="0 0 0 0 0 0 0 0 0 0 0 0 0 0 0 0 0 0 0.05 0"/>
<feBlend mode="normal" in2="BackgroundImageFix" result="effect1_dropShadow"/>
<feBlend mode="normal" in="SourceGraphic" in2="effect1_dropShadow" result="shape"/>
</filter>
<linearGradient id="paint0_linear" x1="44.703" y1="-46.2264" x2="159.307" y2="-18.5276" gradientUnits="userSpaceOnUse">
<stop stop-color="#FF424F"/>
<stop offset="1" stop-color="#C45FBF"/>
</linearGradient>
<clipPath id="clip0">
<rect width="57.619" height="57.619" fill="white" transform="translate(56.1904 41.1904)"/>
</clipPath>
</defs>
</svg>
