<svg width="17" height="16" viewBox="0 0 17 16" fill="none" xmlns="http://www.w3.org/2000/svg">
<path d="M5.89844 12.9297L9.83594 15.1406C9.95312 15.2031 10.0781 15.2578 10.1953 15.2891V2.53906L6.33594 0.179688C6.20312 0.09375 6.04688 0.03125 5.89844 0V12.9297ZM0 14.1562C0 14.7266 0.328125 15.0547 0.890625 15.0547C1.09375 15.0547 1.28906 14.9922 1.54688 14.8516L4.82812 13.0781V0.132812C4.6875 0.203125 4.53125 0.28125 4.39062 0.359375L0.6875 2.48438C0.21875 2.74219 0 3.11719 0 3.64062V14.1562ZM11.2578 15.2656C11.3359 15.2422 11.4219 15.2109 11.4922 15.1641L15.5625 12.8516C16.0312 12.5938 16.25 12.2188 16.25 11.6953V1.17188C16.25 0.59375 15.9219 0.273438 15.3594 0.273438C15.1562 0.273438 14.9609 0.335938 14.7031 0.476562L11.2578 2.39062V15.2656Z" fill="#343945"/>
</svg>
