<svg width="48" height="41" viewBox="0 0 48 41" fill="none" xmlns="http://www.w3.org/2000/svg">
<g clip-path="url(#clip0)">
<path d="M35.6483 28.3389C36.3843 29.0746 36.3843 30.29 35.6483 31.0257L35.5203 31.1536C34.7843 31.8893 33.5683 31.8893 32.8323 31.1536L33.8242 32.1452C34.5602 32.8808 34.5602 34.0963 33.8242 34.8319L33.6963 34.9599C32.9603 35.6955 31.7443 35.6955 31.0083 34.9599L30.9763 34.9279C31.7123 35.6635 31.7123 36.879 30.9763 37.6146L30.8483 37.7426C30.1123 38.4782 28.8962 38.4782 28.1602 37.7426L27.9363 37.5187C28.6723 38.2544 28.6723 39.4698 27.9363 40.2055C27.2003 40.9411 25.9843 40.9411 25.2483 40.2055L23.2323 38.1904L22.1763 38.3503L6.65625 22.8374L15.2643 14.2334L17.5363 16.5044C17.9523 16.9202 18.6563 16.9202 19.0723 16.5044L19.1683 16.4084C20.1923 15.3849 21.8563 15.3849 22.8803 16.4084L23.2963 16.8242L23.3283 16.9841L23.8723 16.4404C23.9043 16.4084 23.9363 16.3764 23.9683 16.3444C24.0643 16.2485 24.2243 16.1205 24.3523 16.0246C24.3843 15.9926 24.4483 15.9606 24.5123 15.9286C24.6723 15.8327 24.8643 15.7367 25.0563 15.6408C25.1203 15.6088 25.1523 15.5768 25.2163 15.5768C25.5363 15.4488 25.8883 15.3529 26.3043 15.2889C26.3682 15.2889 26.4003 15.2569 26.4643 15.2569C26.7843 15.2249 27.1682 15.193 27.5842 15.193H33.7603L40.6403 22.0698L34.9763 27.7312L35.6483 28.3389Z" fill="#F9E9F3"/>
<path d="M40.6081 22.0059L34.9441 27.6673L28.2561 20.9823C27.3601 20.0867 25.8881 20.0867 24.9601 20.9823L23.7761 22.1658L23.3281 22.6136C22.5601 23.3812 21.5361 23.7651 20.5121 23.7651C19.4881 23.7651 18.4641 23.3812 17.6641 22.5816L23.2641 16.9842L23.8081 16.4404C23.8401 16.4084 23.8721 16.3764 23.9041 16.3445C24.0001 16.2485 24.1601 16.1206 24.2881 16.0246C24.3201 15.9926 24.3841 15.9606 24.4481 15.9287C24.6081 15.8327 24.8001 15.7367 24.9921 15.6408C25.0561 15.6088 25.0881 15.5768 25.1521 15.5768C25.4721 15.4489 25.8241 15.3529 26.2401 15.2889C26.3041 15.2889 26.3361 15.257 26.4001 15.257C26.7201 15.225 27.1041 15.193 27.5201 15.193H33.6961L40.6081 22.0059Z" fill="#E7D7E1"/>
<path d="M15.2322 29.4584L12.8962 31.7934C12.1922 32.497 11.0402 32.497 10.3682 31.7934L10.1442 31.5695C9.44021 30.8658 9.44021 29.7143 10.1442 29.0426L12.4802 26.7077C13.1842 26.004 14.3362 26.004 15.0082 26.7077L15.2322 26.9316C15.9362 27.6033 15.9362 28.7547 15.2322 29.4584Z" fill="#E7D7E1"/>
<path d="M19.1039 31.1856L14.3679 35.9194C13.6639 36.6231 12.5439 36.6231 11.8399 35.9194L11.6159 35.6955C10.9119 34.9918 10.9119 33.8724 11.6159 33.1687L16.3519 28.4349C17.0559 27.7312 18.1759 27.7312 18.8799 28.4349L19.1039 28.6588C19.7759 29.3305 19.7759 30.4819 19.1039 31.1856Z" fill="#E7D7E1"/>
<path d="M21.5041 33.2006C21.6321 33.7764 21.4401 34.4161 20.9921 34.8639L18.0481 37.8065C17.3121 38.5422 16.1281 38.5422 15.4241 37.8065L15.2961 37.6786C14.5601 36.9429 14.5601 35.7595 15.2961 35.0558L18.2401 32.1131C18.9761 31.3775 20.1601 31.3775 20.8641 32.1131L20.9921 32.2411C21.2481 32.497 21.4081 32.8488 21.5041 33.2006Z" fill="#E7D7E1"/>
<path d="M23.1045 38.3184L21.6645 39.7577C20.9605 40.4614 19.7765 40.4614 19.0725 39.7577L18.8805 39.5658C18.1765 38.8622 18.1765 37.6787 18.8805 36.975L20.3205 35.5357C21.0245 34.832 22.2085 34.832 22.9125 35.5357L23.1045 35.7276C23.8405 36.4313 23.8405 37.5827 23.1045 38.3184Z" fill="#E7D7E1"/>
<path d="M11.3921 8.02836L0.672086 18.8074C0.160086 19.3192 0.160086 20.1508 0.672086 20.6945L3.07209 23.0934L3.80809 23.8291C4.32009 24.3409 5.15209 24.3409 5.69609 23.8291L16.4801 13.05C16.9921 12.5383 16.9921 11.6747 16.4801 11.1629L13.3121 8.02836C12.7681 7.48461 11.9041 7.51659 11.3921 8.02836ZM4.32009 21.1423C3.71209 21.1423 3.23209 20.6625 3.23209 20.0548C3.23209 19.4471 3.71209 18.9673 4.32009 18.9673C4.92809 18.9673 5.40809 19.4471 5.40809 20.0548C5.40809 20.6306 4.89609 21.1423 4.32009 21.1423Z" fill="#926CF6"/>
<path d="M34.6559 8.02833L31.6159 11.1309C31.1039 11.6427 31.1039 12.4743 31.6159 12.986L42.3999 23.7651C42.9119 24.2769 43.7439 24.2769 44.2879 23.7651L47.3919 20.6305C47.9039 20.1188 47.9039 19.2552 47.3919 18.7434L36.5439 7.96436C36.0319 7.51656 35.1679 7.51656 34.6559 8.02833ZM43.8079 21.1423C43.1999 21.1423 42.7199 20.6625 42.7199 20.0548C42.7199 19.4471 43.1999 18.9673 43.8079 18.9673C44.4159 18.9673 44.8959 19.4471 44.8959 20.0548C44.8959 20.6305 44.3839 21.1423 43.8079 21.1423Z" fill="#21D3AC"/>
<path d="M24.7682 2.14301C24.4162 2.14301 24.0962 1.85514 24.0962 1.47132V0.703674C24.0962 0.351835 24.3842 0.0319824 24.7682 0.0319824C25.1522 0.0319824 25.4402 0.31985 25.4402 0.703674V1.47132C25.4082 1.85514 25.1202 2.14301 24.7682 2.14301Z" fill="#2F74DE"/>
<path d="M24.7682 9.24372C24.4162 9.24372 24.0962 8.95585 24.0962 8.57203V3.71027C24.0962 3.35843 24.3842 3.03857 24.7682 3.03857C25.1522 3.03857 25.4402 3.32644 25.4402 3.71027V8.57203C25.4082 8.95585 25.1202 9.24372 24.7682 9.24372Z" fill="#2F74DE"/>
<path d="M31.424 5.7573C31.296 5.7573 31.168 5.72531 31.072 5.66134C30.752 5.46943 30.656 5.05362 30.848 4.76575L33.568 0.383766C33.76 0.063913 34.176 -0.0320429 34.464 0.159869C34.784 0.351781 34.88 0.767589 34.688 1.05546L31.968 5.43744C31.84 5.66134 31.648 5.7573 31.424 5.7573Z" fill="#2F74DE"/>
<path d="M29.2482 9.24373C29.1202 9.24373 28.9922 9.21175 28.8962 9.14778C28.5762 8.95587 28.4802 8.54006 28.6722 8.25219L29.6322 6.7169C29.8242 6.39704 30.2402 6.30109 30.5282 6.493C30.8482 6.68491 30.9442 7.10072 30.7522 7.38859L29.7922 8.92388C29.6642 9.14778 29.4402 9.24373 29.2482 9.24373Z" fill="#2F74DE"/>
<path d="M20.2881 9.24375C20.0641 9.24375 19.8401 9.1478 19.7441 8.9239L16.9281 4.44596C16.7361 4.12611 16.8321 3.74228 17.1521 3.55037C17.4721 3.35846 17.8561 3.45442 18.0481 3.77427L20.8641 8.25221C21.0561 8.57206 20.9601 8.95589 20.6401 9.1478C20.5121 9.21177 20.4161 9.24375 20.2881 9.24375Z" fill="#2F74DE"/>
</g>
<defs>
<clipPath id="clip0">
<rect width="48" height="40.9412" fill="white"/>
</clipPath>
</defs>
</svg>
