<svg width="565" height="365" viewBox="0 0 565 365" fill="none" xmlns="http://www.w3.org/2000/svg">
<path opacity="0.5" d="M2 1.5C2 0.947715 1.55228 0.5 1 0.5C0.447715 0.5 0 0.947715 0 1.5H2ZM559 365L564.773 355H553.227L559 365ZM0 3.99576C0 4.54805 0.447715 4.99576 1 4.99576C1.55228 4.99576 2 4.54805 2 3.99576H0ZM2 8.98729C2 8.43501 1.55228 7.98729 1 7.98729C0.447715 7.98729 0 8.43501 0 8.98729H2ZM0 13.9788C0 14.5311 0.447715 14.9788 1 14.9788C1.55228 14.9788 2 14.5311 2 13.9788H0ZM2 18.9704C2 18.4181 1.55228 17.9704 1 17.9704C0.447715 17.9704 0 18.4181 0 18.9704H2ZM0 23.9619C0 24.5142 0.447715 24.9619 1 24.9619C1.55228 24.9619 2 24.5142 2 23.9619H0ZM2 28.9534C2 28.4011 1.55228 27.9534 1 27.9534C0.447715 27.9534 0 28.4011 0 28.9534H2ZM0 33.9449C0 34.4972 0.447715 34.9449 1 34.9449C1.55228 34.9449 2 34.4972 2 33.9449H0ZM2 38.9365C2 38.3842 1.55228 37.9365 1 37.9365C0.447715 37.9365 0 38.3842 0 38.9365H2ZM0 43.928C0 44.4803 0.447715 44.928 1 44.928C1.55228 44.928 2 44.4803 2 43.928H0ZM2 48.9195C2 48.3672 1.55228 47.9195 1 47.9195C0.447715 47.9195 0 48.3672 0 48.9195H2ZM0 53.911C0 54.4633 0.447715 54.911 1 54.911C1.55228 54.911 2 54.4633 2 53.911H0ZM2 58.9026C2 58.3503 1.55228 57.9026 1 57.9026C0.447715 57.9026 0 58.3503 0 58.9026H2ZM0 63.8941C0 64.4464 0.447715 64.8941 1 64.8941C1.55228 64.8941 2 64.4464 2 63.8941H0ZM2 68.8856C2 68.3334 1.55228 67.8856 1 67.8856C0.447715 67.8856 0 68.3334 0 68.8856H2ZM0 73.8772C0 74.4295 0.447715 74.8772 1 74.8772C1.55228 74.8772 2 74.4295 2 73.8772H0ZM2 78.8687C2 78.3164 1.55228 77.8687 1 77.8687C0.447715 77.8687 0 78.3164 0 78.8687H2ZM0 83.8602C0 84.4125 0.447715 84.8602 1 84.8602C1.55228 84.8602 2 84.4125 2 83.8602H0ZM2 88.8518C2 88.2995 1.55228 87.8518 1 87.8518C0.447715 87.8518 0 88.2995 0 88.8518H2ZM0 93.8433C0 94.3956 0.447715 94.8433 1 94.8433C1.55228 94.8433 2 94.3956 2 93.8433H0ZM2 98.8348C2 98.2825 1.55228 97.8348 1 97.8348C0.447715 97.8348 0 98.2825 0 98.8348H2ZM0 103.826C0 104.379 0.447715 104.826 1 104.826C1.55228 104.826 2 104.379 2 103.826H0ZM2 108.818C2 108.266 1.55228 107.818 1 107.818C0.447715 107.818 0 108.266 0 108.818H2ZM0 113.809C0 114.362 0.447715 114.809 1 114.809C1.55228 114.809 2 114.362 2 113.809H0ZM2 118.801C2 118.249 1.55228 117.801 1 117.801C0.447715 117.801 0 118.249 0 118.801H2ZM0 123.792C0 124.345 0.447715 124.792 1 124.792C1.55228 124.792 2 124.345 2 123.792H0ZM2 128.784C2 128.232 1.55228 127.784 1 127.784C0.447715 127.784 0 128.232 0 128.784H2ZM0 133.776C0 134.328 0.447715 134.776 1 134.776C1.55228 134.776 2 134.328 2 133.776H0ZM2 138.767C2 138.215 1.55228 137.767 1 137.767C0.447715 137.767 0 138.215 0 138.767H2ZM0 143.759C0 144.311 0.447715 144.759 1 144.759C1.55228 144.759 2 144.311 2 143.759H0ZM2 148.75C2 148.198 1.55228 147.75 1 147.75C0.447715 147.75 0 148.198 0 148.75H2ZM0 153.742C0 154.294 0.447715 154.742 1 154.742C1.55228 154.742 2 154.294 2 153.742H0ZM2 158.733C2 158.181 1.55228 157.733 1 157.733C0.447715 157.733 0 158.181 0 158.733H2ZM0 163.725C0 164.277 0.447715 164.725 1 164.725C1.55228 164.725 2 164.277 2 163.725H0ZM2 168.716C2 168.164 1.55228 167.716 1 167.716C0.447715 167.716 0 168.164 0 168.716H2ZM0 173.708C0 174.26 0.447715 174.708 1 174.708C1.55228 174.708 2 174.26 2 173.708H0ZM2 178.699C2 178.147 1.55228 177.699 1 177.699C0.447715 177.699 0 178.147 0 178.699H2ZM0 183.691C0 184.243 0.447715 184.691 1 184.691C1.55228 184.691 2 184.243 2 183.691H0ZM2 188.682C2 188.13 1.55228 187.682 1 187.682C0.447715 187.682 0 188.13 0 188.682H2ZM0 193.674C0 194.226 0.447715 194.674 1 194.674C1.55228 194.674 2 194.226 2 193.674H0ZM2 198.665C2 198.113 1.55228 197.665 1 197.665C0.447715 197.665 0 198.113 0 198.665H2ZM0 203.657C0 204.209 0.447715 204.657 1 204.657C1.55228 204.657 2 204.209 2 203.657H0ZM2 208.649C2 208.096 1.55228 207.649 1 207.649C0.447715 207.649 0 208.096 0 208.649H2ZM0 213.64C0 214.192 0.447715 214.64 1 214.64C1.55228 214.64 2 214.192 2 213.64H0ZM2 218.632C2 218.079 1.55228 217.632 1 217.632C0.447715 217.632 0 218.079 0 218.632H2ZM0 223.623C0 224.175 0.447715 224.623 1 224.623C1.55228 224.623 2 224.175 2 223.623H0ZM2 228.615C2 228.062 1.55228 227.615 1 227.615C0.447715 227.615 0 228.062 0 228.615H2ZM0 233.606C0 234.158 0.447715 234.606 1 234.606C1.55228 234.606 2 234.158 2 233.606H0ZM2 238.598C2 238.045 1.55228 237.598 1 237.598C0.447715 237.598 0 238.045 0 238.598H2ZM0.137599 243.936C0.191096 244.485 0.680073 244.888 1.22976 244.834C1.77945 244.781 2.18169 244.292 2.12819 243.742L0.137599 243.936ZM3.15581 248.934C2.99567 248.406 2.43737 248.107 1.90882 248.267C1.38026 248.427 1.08159 248.986 1.24173 249.514L3.15581 248.934ZM3.41971 254.767C3.68048 255.254 4.28654 255.437 4.77339 255.176C5.26023 254.916 5.44351 254.31 5.18275 253.823L3.41971 254.767ZM8.12753 258.222C7.77693 257.795 7.14678 257.733 6.72005 258.084C6.29333 258.435 6.23162 259.065 6.58223 259.492L8.12753 258.222ZM10.6019 263.511C11.0286 263.862 11.6588 263.8 12.0094 263.373C12.36 262.947 12.2983 262.316 11.8715 261.966L10.6019 263.511ZM16.2707 264.911C15.7839 264.65 15.1778 264.833 14.917 265.32C14.6563 265.807 14.8395 266.413 15.3264 266.674L16.2707 264.911ZM20.5793 268.852C21.1079 269.012 21.6662 268.713 21.8263 268.185C21.9865 267.656 21.6878 267.098 21.1592 266.938L20.5793 268.852ZM26.3513 267.965C25.8016 267.912 25.3127 268.314 25.2592 268.864C25.2057 269.413 25.6079 269.902 26.1576 269.956L26.3513 267.965ZM31.51 270.093C32.0623 270.093 32.51 269.646 32.51 269.093C32.51 268.541 32.0623 268.093 31.51 268.093V270.093ZM36.53 268.093C35.9777 268.093 35.53 268.541 35.53 269.093C35.53 269.646 35.9777 270.093 36.53 270.093V268.093ZM41.55 270.093C42.1023 270.093 42.55 269.646 42.55 269.093C42.55 268.541 42.1023 268.093 41.55 268.093V270.093ZM46.57 268.093C46.0177 268.093 45.57 268.541 45.57 269.093C45.57 269.646 46.0177 270.093 46.57 270.093V268.093ZM51.59 270.093C52.1423 270.093 52.59 269.646 52.59 269.093C52.59 268.541 52.1423 268.093 51.59 268.093V270.093ZM56.61 268.093C56.0577 268.093 55.61 268.541 55.61 269.093C55.61 269.646 56.0577 270.093 56.61 270.093V268.093ZM61.63 270.093C62.1823 270.093 62.63 269.646 62.63 269.093C62.63 268.541 62.1823 268.093 61.63 268.093V270.093ZM66.65 268.093C66.0977 268.093 65.65 268.541 65.65 269.093C65.65 269.646 66.0977 270.093 66.65 270.093V268.093ZM71.67 270.093C72.2223 270.093 72.67 269.646 72.67 269.093C72.67 268.541 72.2223 268.093 71.67 268.093V270.093ZM76.69 268.093C76.1377 268.093 75.69 268.541 75.69 269.093C75.69 269.646 76.1377 270.093 76.69 270.093V268.093ZM81.71 270.093C82.2623 270.093 82.71 269.646 82.71 269.093C82.71 268.541 82.2623 268.093 81.71 268.093V270.093ZM86.73 268.093C86.1777 268.093 85.73 268.541 85.73 269.093C85.73 269.646 86.1777 270.093 86.73 270.093V268.093ZM91.75 270.093C92.3023 270.093 92.75 269.646 92.75 269.093C92.75 268.541 92.3023 268.093 91.75 268.093V270.093ZM96.77 268.093C96.2177 268.093 95.77 268.541 95.77 269.093C95.77 269.646 96.2177 270.093 96.77 270.093V268.093ZM101.79 270.093C102.342 270.093 102.79 269.646 102.79 269.093C102.79 268.541 102.342 268.093 101.79 268.093V270.093ZM106.81 268.093C106.258 268.093 105.81 268.541 105.81 269.093C105.81 269.646 106.258 270.093 106.81 270.093V268.093ZM111.83 270.093C112.382 270.093 112.83 269.646 112.83 269.093C112.83 268.541 112.382 268.093 111.83 268.093V270.093ZM116.85 268.093C116.298 268.093 115.85 268.541 115.85 269.093C115.85 269.646 116.298 270.093 116.85 270.093V268.093ZM121.87 270.093C122.422 270.093 122.87 269.646 122.87 269.093C122.87 268.541 122.422 268.093 121.87 268.093V270.093ZM126.89 268.093C126.338 268.093 125.89 268.541 125.89 269.093C125.89 269.646 126.338 270.093 126.89 270.093V268.093ZM131.91 270.093C132.462 270.093 132.91 269.646 132.91 269.093C132.91 268.541 132.462 268.093 131.91 268.093V270.093ZM136.93 268.093C136.378 268.093 135.93 268.541 135.93 269.093C135.93 269.646 136.378 270.093 136.93 270.093V268.093ZM141.95 270.093C142.502 270.093 142.95 269.646 142.95 269.093C142.95 268.541 142.502 268.093 141.95 268.093V270.093ZM146.97 268.093C146.418 268.093 145.97 268.541 145.97 269.093C145.97 269.646 146.418 270.093 146.97 270.093V268.093ZM151.99 270.093C152.542 270.093 152.99 269.646 152.99 269.093C152.99 268.541 152.542 268.093 151.99 268.093V270.093ZM157.01 268.093C156.458 268.093 156.01 268.541 156.01 269.093C156.01 269.646 156.458 270.093 157.01 270.093V268.093ZM162.03 270.093C162.582 270.093 163.03 269.646 163.03 269.093C163.03 268.541 162.582 268.093 162.03 268.093V270.093ZM167.05 268.093C166.498 268.093 166.05 268.541 166.05 269.093C166.05 269.646 166.498 270.093 167.05 270.093V268.093ZM172.07 270.093C172.622 270.093 173.07 269.646 173.07 269.093C173.07 268.541 172.622 268.093 172.07 268.093V270.093ZM177.09 268.093C176.538 268.093 176.09 268.541 176.09 269.093C176.09 269.646 176.538 270.093 177.09 270.093V268.093ZM182.11 270.093C182.662 270.093 183.11 269.646 183.11 269.093C183.11 268.541 182.662 268.093 182.11 268.093V270.093ZM187.13 268.093C186.578 268.093 186.13 268.541 186.13 269.093C186.13 269.646 186.578 270.093 187.13 270.093V268.093ZM192.15 270.093C192.702 270.093 193.15 269.646 193.15 269.093C193.15 268.541 192.702 268.093 192.15 268.093V270.093ZM197.17 268.093C196.618 268.093 196.17 268.541 196.17 269.093C196.17 269.646 196.618 270.093 197.17 270.093V268.093ZM202.19 270.093C202.742 270.093 203.19 269.646 203.19 269.093C203.19 268.541 202.742 268.093 202.19 268.093V270.093ZM207.21 268.093C206.658 268.093 206.21 268.541 206.21 269.093C206.21 269.646 206.658 270.093 207.21 270.093V268.093ZM212.23 270.093C212.782 270.093 213.23 269.646 213.23 269.093C213.23 268.541 212.782 268.093 212.23 268.093V270.093ZM217.25 268.093C216.698 268.093 216.25 268.541 216.25 269.093C216.25 269.646 216.698 270.093 217.25 270.093V268.093ZM222.27 270.093C222.822 270.093 223.27 269.646 223.27 269.093C223.27 268.541 222.822 268.093 222.27 268.093V270.093ZM227.29 268.093C226.738 268.093 226.29 268.541 226.29 269.093C226.29 269.646 226.738 270.093 227.29 270.093V268.093ZM232.31 270.093C232.862 270.093 233.31 269.646 233.31 269.093C233.31 268.541 232.862 268.093 232.31 268.093V270.093ZM237.33 268.093C236.778 268.093 236.33 268.541 236.33 269.093C236.33 269.646 236.778 270.093 237.33 270.093V268.093ZM242.35 270.093C242.902 270.093 243.35 269.646 243.35 269.093C243.35 268.541 242.902 268.093 242.35 268.093V270.093ZM247.37 268.093C246.818 268.093 246.37 268.541 246.37 269.093C246.37 269.646 246.818 270.093 247.37 270.093V268.093ZM252.39 270.093C252.942 270.093 253.39 269.646 253.39 269.093C253.39 268.541 252.942 268.093 252.39 268.093V270.093ZM257.41 268.093C256.858 268.093 256.41 268.541 256.41 269.093C256.41 269.646 256.858 270.093 257.41 270.093V268.093ZM262.43 270.093C262.982 270.093 263.43 269.646 263.43 269.093C263.43 268.541 262.982 268.093 262.43 268.093V270.093ZM267.45 268.093C266.898 268.093 266.45 268.541 266.45 269.093C266.45 269.646 266.898 270.093 267.45 270.093V268.093ZM272.47 270.093C273.022 270.093 273.47 269.646 273.47 269.093C273.47 268.541 273.022 268.093 272.47 268.093V270.093ZM277.49 268.093C276.938 268.093 276.49 268.541 276.49 269.093C276.49 269.646 276.938 270.093 277.49 270.093V268.093ZM282.51 270.093C283.062 270.093 283.51 269.646 283.51 269.093C283.51 268.541 283.062 268.093 282.51 268.093V270.093ZM287.53 268.093C286.978 268.093 286.53 268.541 286.53 269.093C286.53 269.646 286.978 270.093 287.53 270.093V268.093ZM292.55 270.093C293.102 270.093 293.55 269.646 293.55 269.093C293.55 268.541 293.102 268.093 292.55 268.093V270.093ZM297.57 268.093C297.018 268.093 296.57 268.541 296.57 269.093C296.57 269.646 297.018 270.093 297.57 270.093V268.093ZM302.59 270.093C303.142 270.093 303.59 269.646 303.59 269.093C303.59 268.541 303.142 268.093 302.59 268.093V270.093ZM307.61 268.093C307.058 268.093 306.61 268.541 306.61 269.093C306.61 269.646 307.058 270.093 307.61 270.093V268.093ZM312.63 270.093C313.182 270.093 313.63 269.646 313.63 269.093C313.63 268.541 313.182 268.093 312.63 268.093V270.093ZM317.65 268.093C317.098 268.093 316.65 268.541 316.65 269.093C316.65 269.646 317.098 270.093 317.65 270.093V268.093ZM322.67 270.093C323.222 270.093 323.67 269.646 323.67 269.093C323.67 268.541 323.222 268.093 322.67 268.093V270.093ZM327.69 268.093C327.138 268.093 326.69 268.541 326.69 269.093C326.69 269.646 327.138 270.093 327.69 270.093V268.093ZM332.71 270.093C333.262 270.093 333.71 269.646 333.71 269.093C333.71 268.541 333.262 268.093 332.71 268.093V270.093ZM337.73 268.093C337.178 268.093 336.73 268.541 336.73 269.093C336.73 269.646 337.178 270.093 337.73 270.093V268.093ZM342.75 270.093C343.302 270.093 343.75 269.646 343.75 269.093C343.75 268.541 343.302 268.093 342.75 268.093V270.093ZM347.77 268.093C347.218 268.093 346.77 268.541 346.77 269.093C346.77 269.646 347.218 270.093 347.77 270.093V268.093ZM352.79 270.093C353.342 270.093 353.79 269.646 353.79 269.093C353.79 268.541 353.342 268.093 352.79 268.093V270.093ZM357.81 268.093C357.258 268.093 356.81 268.541 356.81 269.093C356.81 269.646 357.258 270.093 357.81 270.093V268.093ZM362.83 270.093C363.382 270.093 363.83 269.646 363.83 269.093C363.83 268.541 363.382 268.093 362.83 268.093V270.093ZM367.85 268.093C367.298 268.093 366.85 268.541 366.85 269.093C366.85 269.646 367.298 270.093 367.85 270.093V268.093ZM372.87 270.093C373.422 270.093 373.87 269.646 373.87 269.093C373.87 268.541 373.422 268.093 372.87 268.093V270.093ZM377.89 268.093C377.338 268.093 376.89 268.541 376.89 269.093C376.89 269.646 377.338 270.093 377.89 270.093V268.093ZM382.91 270.093C383.462 270.093 383.91 269.646 383.91 269.093C383.91 268.541 383.462 268.093 382.91 268.093V270.093ZM387.93 268.093C387.378 268.093 386.93 268.541 386.93 269.093C386.93 269.646 387.378 270.093 387.93 270.093V268.093ZM392.95 270.093C393.502 270.093 393.95 269.646 393.95 269.093C393.95 268.541 393.502 268.093 392.95 268.093V270.093ZM397.97 268.093C397.418 268.093 396.97 268.541 396.97 269.093C396.97 269.646 397.418 270.093 397.97 270.093V268.093ZM402.99 270.093C403.542 270.093 403.99 269.646 403.99 269.093C403.99 268.541 403.542 268.093 402.99 268.093V270.093ZM408.01 268.093C407.458 268.093 407.01 268.541 407.01 269.093C407.01 269.646 407.458 270.093 408.01 270.093V268.093ZM413.03 270.093C413.582 270.093 414.03 269.646 414.03 269.093C414.03 268.541 413.582 268.093 413.03 268.093V270.093ZM418.05 268.093C417.497 268.093 417.05 268.541 417.05 269.093C417.05 269.646 417.497 270.093 418.05 270.093V268.093ZM423.07 270.093C423.622 270.093 424.07 269.646 424.07 269.093C424.07 268.541 423.622 268.093 423.07 268.093V270.093ZM428.09 268.093C427.537 268.093 427.09 268.541 427.09 269.093C427.09 269.646 427.537 270.093 428.09 270.093V268.093ZM433.11 270.093C433.662 270.093 434.11 269.646 434.11 269.093C434.11 268.541 433.662 268.093 433.11 268.093V270.093ZM438.13 268.093C437.577 268.093 437.13 268.541 437.13 269.093C437.13 269.646 437.577 270.093 438.13 270.093V268.093ZM443.15 270.093C443.702 270.093 444.15 269.646 444.15 269.093C444.15 268.541 443.702 268.093 443.15 268.093V270.093ZM448.17 268.093C447.617 268.093 447.17 268.541 447.17 269.093C447.17 269.646 447.617 270.093 448.17 270.093V268.093ZM453.19 270.093C453.742 270.093 454.19 269.646 454.19 269.093C454.19 268.541 453.742 268.093 453.19 268.093V270.093ZM458.21 268.093C457.657 268.093 457.21 268.541 457.21 269.093C457.21 269.646 457.657 270.093 458.21 270.093V268.093ZM463.23 270.093C463.782 270.093 464.23 269.646 464.23 269.093C464.23 268.541 463.782 268.093 463.23 268.093V270.093ZM468.25 268.093C467.697 268.093 467.25 268.541 467.25 269.093C467.25 269.646 467.697 270.093 468.25 270.093V268.093ZM473.27 270.093C473.822 270.093 474.27 269.646 474.27 269.093C474.27 268.541 473.822 268.093 473.27 268.093V270.093ZM478.29 268.093C477.737 268.093 477.29 268.541 477.29 269.093C477.29 269.646 477.737 270.093 478.29 270.093V268.093ZM483.31 270.093C483.862 270.093 484.31 269.646 484.31 269.093C484.31 268.541 483.862 268.093 483.31 268.093V270.093ZM488.33 268.093C487.777 268.093 487.33 268.541 487.33 269.093C487.33 269.646 487.777 270.093 488.33 270.093V268.093ZM493.35 270.093C493.902 270.093 494.35 269.646 494.35 269.093C494.35 268.541 493.902 268.093 493.35 268.093V270.093ZM498.37 268.093C497.817 268.093 497.37 268.541 497.37 269.093C497.37 269.646 497.817 270.093 498.37 270.093V268.093ZM503.39 270.093C503.942 270.093 504.39 269.646 504.39 269.093C504.39 268.541 503.942 268.093 503.39 268.093V270.093ZM508.41 268.093C507.857 268.093 507.41 268.541 507.41 269.093C507.41 269.646 507.857 270.093 508.41 270.093V268.093ZM513.43 270.093C513.982 270.093 514.43 269.646 514.43 269.093C514.43 268.541 513.982 268.093 513.43 268.093V270.093ZM518.45 268.093C517.897 268.093 517.45 268.541 517.45 269.093C517.45 269.646 517.897 270.093 518.45 270.093V268.093ZM523.47 270.093C524.022 270.093 524.47 269.646 524.47 269.093C524.47 268.541 524.022 268.093 523.47 268.093V270.093ZM528.49 268.093C527.937 268.093 527.49 268.541 527.49 269.093C527.49 269.646 527.937 270.093 528.49 270.093V268.093ZM533.649 270.222C534.198 270.275 534.687 269.873 534.741 269.323C534.794 268.773 534.392 268.284 533.842 268.231L533.649 270.222ZM539.421 269.335C538.892 269.175 538.334 269.474 538.174 270.002C538.014 270.531 538.312 271.089 538.841 271.249L539.421 269.335ZM543.729 273.276C544.216 273.537 544.822 273.354 545.083 272.867C545.344 272.38 545.16 271.774 544.674 271.513L543.729 273.276ZM549.398 274.676C548.971 274.325 548.341 274.387 547.991 274.813C547.64 275.24 547.702 275.87 548.128 276.221L549.398 274.676ZM551.872 279.965C552.223 280.392 552.853 280.453 553.28 280.103C553.707 279.752 553.768 279.122 553.418 278.695L551.872 279.965ZM556.58 283.42C556.32 282.933 555.713 282.75 555.227 283.01C554.74 283.271 554.557 283.877 554.817 284.364L556.58 283.42ZM556.844 289.253C557.004 289.781 557.563 290.08 558.091 289.92C558.62 289.76 558.918 289.201 558.758 288.673L556.844 289.253ZM559.862 294.251C559.809 293.701 559.32 293.299 558.77 293.353C558.221 293.406 557.818 293.895 557.872 294.445L559.862 294.251ZM558 299.519C558 300.071 558.448 300.519 559 300.519C559.552 300.519 560 300.071 560 299.519H558ZM560 304.369C560 303.817 559.552 303.369 559 303.369C558.448 303.369 558 303.817 558 304.369H560ZM558 309.22C558 309.772 558.448 310.22 559 310.22C559.552 310.22 560 309.772 560 309.22H558ZM560 314.07C560 313.518 559.552 313.07 559 313.07C558.448 313.07 558 313.518 558 314.07H560ZM558 318.921C558 319.473 558.448 319.921 559 319.921C559.552 319.921 560 319.473 560 318.921H558ZM560 323.771C560 323.219 559.552 322.771 559 322.771C558.448 322.771 558 323.219 558 323.771H560ZM558 328.621C558 329.174 558.448 329.621 559 329.621C559.552 329.621 560 329.174 560 328.621H558ZM560 333.472C560 332.92 559.552 332.472 559 332.472C558.448 332.472 558 332.92 558 333.472H560ZM558 338.322C558 338.875 558.448 339.322 559 339.322C559.552 339.322 560 338.875 560 338.322H558ZM560 343.173C560 342.621 559.552 342.173 559 342.173C558.448 342.173 558 342.621 558 343.173H560ZM558 348.023C558 348.576 558.448 349.023 559 349.023C559.552 349.023 560 348.576 560 348.023H558ZM560 352.874C560 352.322 559.552 351.874 559 351.874C558.448 351.874 558 352.322 558 352.874H560ZM558 357.724C558 358.277 558.448 358.724 559 358.724C559.552 358.724 560 358.277 560 357.724H558ZM560 362.575C560 362.022 559.552 361.575 559 361.575C558.448 361.575 558 362.022 558 362.575H560ZM0 1.5V3.99576H2V1.5H0ZM0 8.98729V13.9788H2V8.98729H0ZM0 18.9704V23.9619H2V18.9704H0ZM0 28.9534V33.9449H2V28.9534H0ZM0 38.9365V43.928H2V38.9365H0ZM0 48.9195V53.911H2V48.9195H0ZM0 58.9026V63.8941H2V58.9026H0ZM0 68.8856V73.8772H2V68.8856H0ZM0 78.8687V83.8602H2V78.8687H0ZM0 88.8518V93.8433H2V88.8518H0ZM0 98.8348V103.826H2V98.8348H0ZM0 108.818V113.809H2V108.818H0ZM0 118.801V123.792H2V118.801H0ZM0 128.784V133.776H2V128.784H0ZM0 138.767V143.759H2V138.767H0ZM0 148.75V153.742H2V148.75H0ZM0 158.733V163.725H2V158.733H0ZM0 168.716V173.708H2V168.716H0ZM0 178.699V183.691H2V178.699H0ZM0 188.682V193.674H2V188.682H0ZM0 198.665V203.657H2V198.665H0ZM0 208.649V213.64H2V208.649H0ZM0 218.632V223.623H2V218.632H0ZM0 228.615V233.606H2V228.615H0ZM0 238.598V241.093H2V238.598H0ZM0 241.093C0 242.052 0.0465617 243 0.137599 243.936L2.12819 243.742C2.04341 242.871 2 241.987 2 241.093H0ZM1.24173 249.514C1.79757 251.349 2.5302 253.106 3.41971 254.767L5.18275 253.823C4.35475 252.277 3.67299 250.641 3.15581 248.934L1.24173 249.514ZM6.58223 259.492C7.78779 260.959 9.13459 262.306 10.6019 263.511L11.8715 261.966C10.5049 260.843 9.25041 259.589 8.12753 258.222L6.58223 259.492ZM15.3264 266.674C16.9871 267.563 18.7447 268.296 20.5793 268.852L21.1592 266.938C19.4522 266.42 17.8166 265.739 16.2707 264.911L15.3264 266.674ZM26.1576 269.956C27.093 270.047 28.0412 270.093 29 270.093V268.093C28.106 268.093 27.2225 268.05 26.3513 267.965L26.1576 269.956ZM29 270.093H31.51V268.093H29V270.093ZM36.53 270.093H41.55V268.093H36.53V270.093ZM46.57 270.093H51.59V268.093H46.57V270.093ZM56.61 270.093H61.63V268.093H56.61V270.093ZM66.65 270.093H71.67V268.093H66.65V270.093ZM76.69 270.093H81.71V268.093H76.69V270.093ZM86.73 270.093H91.75V268.093H86.73V270.093ZM96.77 270.093H101.79V268.093H96.77V270.093ZM106.81 270.093H111.83V268.093H106.81V270.093ZM116.85 270.093H121.87V268.093H116.85V270.093ZM126.89 270.093H131.91V268.093H126.89V270.093ZM136.93 270.093H141.95V268.093H136.93V270.093ZM146.97 270.093H151.99V268.093H146.97V270.093ZM157.01 270.093H162.03V268.093H157.01V270.093ZM167.05 270.093H172.07V268.093H167.05V270.093ZM177.09 270.093H182.11V268.093H177.09V270.093ZM187.13 270.093H192.15V268.093H187.13V270.093ZM197.17 270.093H202.19V268.093H197.17V270.093ZM207.21 270.093H212.23V268.093H207.21V270.093ZM217.25 270.093H222.27V268.093H217.25V270.093ZM227.29 270.093H232.31V268.093H227.29V270.093ZM237.33 270.093H242.35V268.093H237.33V270.093ZM247.37 270.093H252.39V268.093H247.37V270.093ZM257.41 270.093H262.43V268.093H257.41V270.093ZM267.45 270.093H272.47V268.093H267.45V270.093ZM277.49 270.093H282.51V268.093H277.49V270.093ZM287.53 270.093H292.55V268.093H287.53V270.093ZM297.57 270.093H302.59V268.093H297.57V270.093ZM307.61 270.093H312.63V268.093H307.61V270.093ZM317.65 270.093H322.67V268.093H317.65V270.093ZM327.69 270.093H332.71V268.093H327.69V270.093ZM337.73 270.093H342.75V268.093H337.73V270.093ZM347.77 270.093H352.79V268.093H347.77V270.093ZM357.81 270.093H362.83V268.093H357.81V270.093ZM367.85 270.093H372.87V268.093H367.85V270.093ZM377.89 270.093H382.91V268.093H377.89V270.093ZM387.93 270.093H392.95V268.093H387.93V270.093ZM397.97 270.093H402.99V268.093H397.97V270.093ZM408.01 270.093H413.03V268.093H408.01V270.093ZM418.05 270.093H423.07V268.093H418.05V270.093ZM428.09 270.093H433.11V268.093H428.09V270.093ZM438.13 270.093H443.15V268.093H438.13V270.093ZM448.17 270.093H453.19V268.093H448.17V270.093ZM458.21 270.093H463.23V268.093H458.21V270.093ZM468.25 270.093H473.27V268.093H468.25V270.093ZM478.29 270.093H483.31V268.093H478.29V270.093ZM488.33 270.093H493.35V268.093H488.33V270.093ZM498.37 270.093H503.39V268.093H498.37V270.093ZM508.41 270.093H513.43V268.093H508.41V270.093ZM518.45 270.093H523.47V268.093H518.45V270.093ZM528.49 270.093H531V268.093H528.49V270.093ZM531 270.093C531.894 270.093 532.778 270.137 533.649 270.222L533.842 268.231C532.907 268.14 531.959 268.093 531 268.093V270.093ZM538.841 271.249C540.548 271.766 542.183 272.448 543.729 273.276L544.674 271.513C543.013 270.624 541.255 269.891 539.421 269.335L538.841 271.249ZM548.128 276.221C549.495 277.344 550.75 278.598 551.872 279.965L553.418 278.695C552.212 277.228 550.865 275.881 549.398 274.676L548.128 276.221ZM554.817 284.364C555.645 285.91 556.327 287.546 556.844 289.253L558.758 288.673C558.202 286.838 557.47 285.081 556.58 283.42L554.817 284.364ZM557.872 294.445C557.957 295.316 558 296.199 558 297.093H560C560 296.135 559.953 295.186 559.862 294.251L557.872 294.445ZM558 297.093V299.519H560V297.093H558ZM558 304.369V309.22H560V304.369H558ZM558 314.07V318.921H560V314.07H558ZM558 323.771V328.621H560V323.771H558ZM558 333.472V338.322H560V333.472H558ZM558 343.173V348.023H560V343.173H558ZM558 352.874V357.724H560V352.874H558Z" fill="url(#paint0_linear)"/>
<defs>
<linearGradient id="paint0_linear" x1="75.5842" y1="-200.826" x2="616.45" y2="-0.156832" gradientUnits="userSpaceOnUse">
<stop stop-color="#FF424F"/>
<stop offset="1" stop-color="#C45FBF"/>
</linearGradient>
</defs>
</svg>
