<svg width="559" height="451" viewBox="0 0 559 451" fill="none" xmlns="http://www.w3.org/2000/svg">
<path opacity="0.5" d="M2 1C2 0.447715 1.55228 0 1 0C0.447715 0 0 0.447715 0 1H2ZM553 451L558.773 441H547.227L553 451ZM0 3.47189C0 4.02417 0.447715 4.47189 1 4.47189C1.55228 4.47189 2 4.02417 2 3.47189H0ZM2 8.41566C2 7.86337 1.55228 7.41566 1 7.41566C0.447715 7.41566 0 7.86337 0 8.41566H2ZM0 13.3594C0 13.9117 0.447715 14.3594 1 14.3594C1.55228 14.3594 2 13.9117 2 13.3594H0ZM2 18.3032C2 17.7509 1.55228 17.3032 1 17.3032C0.447715 17.3032 0 17.7509 0 18.3032H2ZM0 23.247C0 23.7993 0.447715 24.247 1 24.247C1.55228 24.247 2 23.7993 2 23.247H0ZM2 28.1907C2 27.6385 1.55228 27.1907 1 27.1907C0.447715 27.1907 0 27.6385 0 28.1907H2ZM0 33.1345C0 33.6868 0.447715 34.1345 1 34.1345C1.55228 34.1345 2 33.6868 2 33.1345H0ZM2 38.0783C2 37.526 1.55228 37.0783 1 37.0783C0.447715 37.0783 0 37.526 0 38.0783H2ZM0 43.0221C0 43.5743 0.447715 44.0221 1 44.0221C1.55228 44.0221 2 43.5743 2 43.0221H0ZM2 47.9658C2 47.4135 1.55228 46.9658 1 46.9658C0.447715 46.9658 0 47.4135 0 47.9658H2ZM0 52.9096C0 53.4619 0.447715 53.9096 1 53.9096C1.55228 53.9096 2 53.4619 2 52.9096H0ZM2 57.8534C2 57.3011 1.55228 56.8534 1 56.8534C0.447715 56.8534 0 57.3011 0 57.8534H2ZM0 62.7971C0 63.3494 0.447715 63.7971 1 63.7971C1.55228 63.7971 2 63.3494 2 62.7971H0ZM2 67.7409C2 67.1886 1.55228 66.7409 1 66.7409C0.447715 66.7409 0 67.1886 0 67.7409H2ZM0 72.6847C0 73.237 0.447715 73.6847 1 73.6847C1.55228 73.6847 2 73.237 2 72.6847H0ZM2 77.6284C2 77.0762 1.55228 76.6284 1 76.6284C0.447715 76.6284 0 77.0762 0 77.6284H2ZM0 82.5722C0 83.1245 0.447715 83.5722 1 83.5722C1.55228 83.5722 2 83.1245 2 82.5722H0ZM2 87.516C2 86.9637 1.55228 86.516 1 86.516C0.447715 86.516 0 86.9637 0 87.516H2ZM0 92.4598C0 93.012 0.447715 93.4598 1 93.4598C1.55228 93.4598 2 93.012 2 92.4598H0ZM2 97.4035C2 96.8512 1.55228 96.4035 1 96.4035C0.447715 96.4035 0 96.8512 0 97.4035H2ZM0 102.347C0 102.9 0.447715 103.347 1 103.347C1.55228 103.347 2 102.9 2 102.347H0ZM2 107.291C2 106.739 1.55228 106.291 1 106.291C0.447715 106.291 0 106.739 0 107.291H2ZM0 112.235C0 112.787 0.447715 113.235 1 113.235C1.55228 113.235 2 112.787 2 112.235H0ZM2 117.179C2 116.626 1.55228 116.179 1 116.179C0.447715 116.179 0 116.626 0 117.179H2ZM0 122.122C0 122.675 0.447715 123.122 1 123.122C1.55228 123.122 2 122.675 2 122.122H0ZM2 127.066C2 126.514 1.55228 126.066 1 126.066C0.447715 126.066 0 126.514 0 127.066H2ZM0 132.01C0 132.562 0.447715 133.01 1 133.01C1.55228 133.01 2 132.562 2 132.01H0ZM2 136.954C2 136.401 1.55228 135.954 1 135.954C0.447715 135.954 0 136.401 0 136.954H2ZM0 141.897C0 142.45 0.447715 142.897 1 142.897C1.55228 142.897 2 142.45 2 141.897H0ZM2 146.841C2 146.289 1.55228 145.841 1 145.841C0.447715 145.841 0 146.289 0 146.841H2ZM0 151.785C0 152.337 0.447715 152.785 1 152.785C1.55228 152.785 2 152.337 2 151.785H0ZM2 156.729C2 156.177 1.55228 155.729 1 155.729C0.447715 155.729 0 156.177 0 156.729H2ZM0 161.673C0 162.225 0.447715 162.673 1 162.673C1.55228 162.673 2 162.225 2 161.673H0ZM2 166.616C2 166.064 1.55228 165.616 1 165.616C0.447715 165.616 0 166.064 0 166.616H2ZM0 171.56C0 172.112 0.447715 172.56 1 172.56C1.55228 172.56 2 172.112 2 171.56H0ZM2 176.504C2 175.952 1.55228 175.504 1 175.504C0.447715 175.504 0 175.952 0 176.504H2ZM0 181.448C0 182 0.447715 182.448 1 182.448C1.55228 182.448 2 182 2 181.448H0ZM2 186.391C2 185.839 1.55228 185.391 1 185.391C0.447715 185.391 0 185.839 0 186.391H2ZM0 191.335C0 191.887 0.447715 192.335 1 192.335C1.55228 192.335 2 191.887 2 191.335H0ZM2 196.279C2 195.727 1.55228 195.279 1 195.279C0.447715 195.279 0 195.727 0 196.279H2ZM0 201.223C0 201.775 0.447715 202.223 1 202.223C1.55228 202.223 2 201.775 2 201.223H0ZM2 206.167C2 205.614 1.55228 205.167 1 205.167C0.447715 205.167 0 205.614 0 206.167H2ZM0 211.11C0 211.663 0.447715 212.11 1 212.11C1.55228 212.11 2 211.663 2 211.11H0ZM2 216.054C2 215.502 1.55228 215.054 1 215.054C0.447715 215.054 0 215.502 0 216.054H2ZM0 220.998C0 221.55 0.447715 221.998 1 221.998C1.55228 221.998 2 221.55 2 220.998H0ZM2 225.942C2 225.389 1.55228 224.942 1 224.942C0.447715 224.942 0 225.389 0 225.942H2ZM0 230.885C0 231.438 0.447715 231.885 1 231.885C1.55228 231.885 2 231.438 2 230.885H0ZM2 235.829C2 235.277 1.55228 234.829 1 234.829C0.447715 234.829 0 235.277 0 235.829H2ZM0 240.773C0 241.325 0.447715 241.773 1 241.773C1.55228 241.773 2 241.325 2 240.773H0ZM2 245.717C2 245.164 1.55228 244.717 1 244.717C0.447715 244.717 0 245.164 0 245.717H2ZM0.137599 251.031C0.191096 251.581 0.680073 251.983 1.22976 251.929C1.77945 251.876 2.18169 251.387 2.12819 250.837L0.137599 251.031ZM3.15581 256.029C2.99567 255.501 2.43737 255.202 1.90882 255.362C1.38026 255.522 1.08159 256.081 1.24173 256.609L3.15581 256.029ZM3.41972 261.862C3.68048 262.349 4.28654 262.532 4.77339 262.272C5.26023 262.011 5.44351 261.405 5.18275 260.918L3.41972 261.862ZM8.12753 265.317C7.77693 264.89 7.14678 264.829 6.72005 265.179C6.29333 265.53 6.23162 266.16 6.58223 266.587L8.12753 265.317ZM10.6019 270.606C11.0286 270.957 11.6588 270.895 12.0094 270.468C12.36 270.042 12.2983 269.412 11.8715 269.061L10.6019 270.606ZM16.2707 272.006C15.7839 271.745 15.1778 271.928 14.917 272.415C14.6563 272.902 14.8395 273.508 15.3264 273.769L16.2707 272.006ZM20.5793 275.947C21.1079 276.107 21.6662 275.808 21.8263 275.28C21.9865 274.751 21.6878 274.193 21.1592 274.033L20.5793 275.947ZM26.3513 275.06C25.8016 275.007 25.3127 275.409 25.2592 275.959C25.2057 276.508 25.6079 276.997 26.1576 277.051L26.3513 275.06ZM31.48 277.189C32.0323 277.189 32.48 276.741 32.48 276.189C32.48 275.636 32.0323 275.189 31.48 275.189V277.189ZM36.44 275.189C35.8877 275.189 35.44 275.636 35.44 276.189C35.44 276.741 35.8877 277.189 36.44 277.189V275.189ZM41.4 277.189C41.9523 277.189 42.4 276.741 42.4 276.189C42.4 275.636 41.9523 275.189 41.4 275.189V277.189ZM46.36 275.189C45.8077 275.189 45.36 275.636 45.36 276.189C45.36 276.741 45.8077 277.189 46.36 277.189V275.189ZM51.32 277.189C51.8723 277.189 52.32 276.741 52.32 276.189C52.32 275.636 51.8723 275.189 51.32 275.189V277.189ZM56.28 275.189C55.7277 275.189 55.28 275.636 55.28 276.189C55.28 276.741 55.7277 277.189 56.28 277.189V275.189ZM61.24 277.189C61.7923 277.189 62.24 276.741 62.24 276.189C62.24 275.636 61.7923 275.189 61.24 275.189V277.189ZM66.2 275.189C65.6477 275.189 65.2 275.636 65.2 276.189C65.2 276.741 65.6477 277.189 66.2 277.189V275.189ZM71.16 277.189C71.7123 277.189 72.16 276.741 72.16 276.189C72.16 275.636 71.7123 275.189 71.16 275.189V277.189ZM76.12 275.189C75.5677 275.189 75.12 275.636 75.12 276.189C75.12 276.741 75.5677 277.189 76.12 277.189V275.189ZM81.08 277.189C81.6323 277.189 82.08 276.741 82.08 276.189C82.08 275.636 81.6323 275.189 81.08 275.189V277.189ZM86.04 275.189C85.4877 275.189 85.04 275.636 85.04 276.189C85.04 276.741 85.4877 277.189 86.04 277.189V275.189ZM91 277.189C91.5523 277.189 92 276.741 92 276.189C92 275.636 91.5523 275.189 91 275.189V277.189ZM95.96 275.189C95.4077 275.189 94.96 275.636 94.96 276.189C94.96 276.741 95.4077 277.189 95.96 277.189V275.189ZM100.92 277.189C101.472 277.189 101.92 276.741 101.92 276.189C101.92 275.636 101.472 275.189 100.92 275.189V277.189ZM105.88 275.189C105.328 275.189 104.88 275.636 104.88 276.189C104.88 276.741 105.328 277.189 105.88 277.189V275.189ZM110.84 277.189C111.392 277.189 111.84 276.741 111.84 276.189C111.84 275.636 111.392 275.189 110.84 275.189V277.189ZM115.8 275.189C115.248 275.189 114.8 275.636 114.8 276.189C114.8 276.741 115.248 277.189 115.8 277.189V275.189ZM120.76 277.189C121.312 277.189 121.76 276.741 121.76 276.189C121.76 275.636 121.312 275.189 120.76 275.189V277.189ZM125.72 275.189C125.168 275.189 124.72 275.636 124.72 276.189C124.72 276.741 125.168 277.189 125.72 277.189V275.189ZM130.68 277.189C131.232 277.189 131.68 276.741 131.68 276.189C131.68 275.636 131.232 275.189 130.68 275.189V277.189ZM135.64 275.189C135.088 275.189 134.64 275.636 134.64 276.189C134.64 276.741 135.088 277.189 135.64 277.189V275.189ZM140.6 277.189C141.152 277.189 141.6 276.741 141.6 276.189C141.6 275.636 141.152 275.189 140.6 275.189V277.189ZM145.56 275.189C145.008 275.189 144.56 275.636 144.56 276.189C144.56 276.741 145.008 277.189 145.56 277.189V275.189ZM150.52 277.189C151.072 277.189 151.52 276.741 151.52 276.189C151.52 275.636 151.072 275.189 150.52 275.189V277.189ZM155.48 275.189C154.928 275.189 154.48 275.636 154.48 276.189C154.48 276.741 154.928 277.189 155.48 277.189V275.189ZM160.44 277.189C160.992 277.189 161.44 276.741 161.44 276.189C161.44 275.636 160.992 275.189 160.44 275.189V277.189ZM165.4 275.189C164.848 275.189 164.4 275.636 164.4 276.189C164.4 276.741 164.848 277.189 165.4 277.189V275.189ZM170.36 277.189C170.912 277.189 171.36 276.741 171.36 276.189C171.36 275.636 170.912 275.189 170.36 275.189V277.189ZM175.32 275.189C174.768 275.189 174.32 275.636 174.32 276.189C174.32 276.741 174.768 277.189 175.32 277.189V275.189ZM180.28 277.189C180.832 277.189 181.28 276.741 181.28 276.189C181.28 275.636 180.832 275.189 180.28 275.189V277.189ZM185.24 275.189C184.688 275.189 184.24 275.636 184.24 276.189C184.24 276.741 184.688 277.189 185.24 277.189V275.189ZM190.2 277.189C190.752 277.189 191.2 276.741 191.2 276.189C191.2 275.636 190.752 275.189 190.2 275.189V277.189ZM195.16 275.189C194.608 275.189 194.16 275.636 194.16 276.189C194.16 276.741 194.608 277.189 195.16 277.189V275.189ZM200.12 277.189C200.672 277.189 201.12 276.741 201.12 276.189C201.12 275.636 200.672 275.189 200.12 275.189V277.189ZM205.08 275.189C204.528 275.189 204.08 275.636 204.08 276.189C204.08 276.741 204.528 277.189 205.08 277.189V275.189ZM210.04 277.189C210.592 277.189 211.04 276.741 211.04 276.189C211.04 275.636 210.592 275.189 210.04 275.189V277.189ZM215 275.189C214.448 275.189 214 275.636 214 276.189C214 276.741 214.448 277.189 215 277.189V275.189ZM219.96 277.189C220.512 277.189 220.96 276.741 220.96 276.189C220.96 275.636 220.512 275.189 219.96 275.189V277.189ZM224.92 275.189C224.368 275.189 223.92 275.636 223.92 276.189C223.92 276.741 224.368 277.189 224.92 277.189V275.189ZM229.88 277.189C230.432 277.189 230.88 276.741 230.88 276.189C230.88 275.636 230.432 275.189 229.88 275.189V277.189ZM234.84 275.189C234.288 275.189 233.84 275.636 233.84 276.189C233.84 276.741 234.288 277.189 234.84 277.189V275.189ZM239.8 277.189C240.352 277.189 240.8 276.741 240.8 276.189C240.8 275.636 240.352 275.189 239.8 275.189V277.189ZM244.76 275.189C244.208 275.189 243.76 275.636 243.76 276.189C243.76 276.741 244.208 277.189 244.76 277.189V275.189ZM249.72 277.189C250.272 277.189 250.72 276.741 250.72 276.189C250.72 275.636 250.272 275.189 249.72 275.189V277.189ZM254.68 275.189C254.128 275.189 253.68 275.636 253.68 276.189C253.68 276.741 254.128 277.189 254.68 277.189V275.189ZM259.64 277.189C260.192 277.189 260.64 276.741 260.64 276.189C260.64 275.636 260.192 275.189 259.64 275.189V277.189ZM264.6 275.189C264.048 275.189 263.6 275.636 263.6 276.189C263.6 276.741 264.048 277.189 264.6 277.189V275.189ZM269.56 277.189C270.112 277.189 270.56 276.741 270.56 276.189C270.56 275.636 270.112 275.189 269.56 275.189V277.189ZM274.52 275.189C273.968 275.189 273.52 275.636 273.52 276.189C273.52 276.741 273.968 277.189 274.52 277.189V275.189ZM279.48 277.189C280.032 277.189 280.48 276.741 280.48 276.189C280.48 275.636 280.032 275.189 279.48 275.189V277.189ZM284.44 275.189C283.888 275.189 283.44 275.636 283.44 276.189C283.44 276.741 283.888 277.189 284.44 277.189V275.189ZM289.4 277.189C289.952 277.189 290.4 276.741 290.4 276.189C290.4 275.636 289.952 275.189 289.4 275.189V277.189ZM294.36 275.189C293.808 275.189 293.36 275.636 293.36 276.189C293.36 276.741 293.808 277.189 294.36 277.189V275.189ZM299.32 277.189C299.872 277.189 300.32 276.741 300.32 276.189C300.32 275.636 299.872 275.189 299.32 275.189V277.189ZM304.28 275.189C303.728 275.189 303.28 275.636 303.28 276.189C303.28 276.741 303.728 277.189 304.28 277.189V275.189ZM309.24 277.189C309.792 277.189 310.24 276.741 310.24 276.189C310.24 275.636 309.792 275.189 309.24 275.189V277.189ZM314.2 275.189C313.648 275.189 313.2 275.636 313.2 276.189C313.2 276.741 313.648 277.189 314.2 277.189V275.189ZM319.16 277.189C319.712 277.189 320.16 276.741 320.16 276.189C320.16 275.636 319.712 275.189 319.16 275.189V277.189ZM324.12 275.189C323.568 275.189 323.12 275.636 323.12 276.189C323.12 276.741 323.568 277.189 324.12 277.189V275.189ZM329.08 277.189C329.632 277.189 330.08 276.741 330.08 276.189C330.08 275.636 329.632 275.189 329.08 275.189V277.189ZM334.04 275.189C333.488 275.189 333.04 275.636 333.04 276.189C333.04 276.741 333.488 277.189 334.04 277.189V275.189ZM339 277.189C339.552 277.189 340 276.741 340 276.189C340 275.636 339.552 275.189 339 275.189V277.189ZM343.96 275.189C343.408 275.189 342.96 275.636 342.96 276.189C342.96 276.741 343.408 277.189 343.96 277.189V275.189ZM348.92 277.189C349.472 277.189 349.92 276.741 349.92 276.189C349.92 275.636 349.472 275.189 348.92 275.189V277.189ZM353.88 275.189C353.328 275.189 352.88 275.636 352.88 276.189C352.88 276.741 353.328 277.189 353.88 277.189V275.189ZM358.84 277.189C359.392 277.189 359.84 276.741 359.84 276.189C359.84 275.636 359.392 275.189 358.84 275.189V277.189ZM363.8 275.189C363.248 275.189 362.8 275.636 362.8 276.189C362.8 276.741 363.248 277.189 363.8 277.189V275.189ZM368.76 277.189C369.312 277.189 369.76 276.741 369.76 276.189C369.76 275.636 369.312 275.189 368.76 275.189V277.189ZM373.72 275.189C373.168 275.189 372.72 275.636 372.72 276.189C372.72 276.741 373.168 277.189 373.72 277.189V275.189ZM378.68 277.189C379.232 277.189 379.68 276.741 379.68 276.189C379.68 275.636 379.232 275.189 378.68 275.189V277.189ZM383.64 275.189C383.088 275.189 382.64 275.636 382.64 276.189C382.64 276.741 383.088 277.189 383.64 277.189V275.189ZM388.6 277.189C389.152 277.189 389.6 276.741 389.6 276.189C389.6 275.636 389.152 275.189 388.6 275.189V277.189ZM393.56 275.189C393.008 275.189 392.56 275.636 392.56 276.189C392.56 276.741 393.008 277.189 393.56 277.189V275.189ZM398.52 277.189C399.072 277.189 399.52 276.741 399.52 276.189C399.52 275.636 399.072 275.189 398.52 275.189V277.189ZM403.48 275.189C402.928 275.189 402.48 275.636 402.48 276.189C402.48 276.741 402.928 277.189 403.48 277.189V275.189ZM408.44 277.189C408.992 277.189 409.44 276.741 409.44 276.189C409.44 275.636 408.992 275.189 408.44 275.189V277.189ZM413.4 275.189C412.848 275.189 412.4 275.636 412.4 276.189C412.4 276.741 412.848 277.189 413.4 277.189V275.189ZM418.36 277.189C418.912 277.189 419.36 276.741 419.36 276.189C419.36 275.636 418.912 275.189 418.36 275.189V277.189ZM423.32 275.189C422.768 275.189 422.32 275.636 422.32 276.189C422.32 276.741 422.768 277.189 423.32 277.189V275.189ZM428.28 277.189C428.832 277.189 429.28 276.741 429.28 276.189C429.28 275.636 428.832 275.189 428.28 275.189V277.189ZM433.24 275.189C432.688 275.189 432.24 275.636 432.24 276.189C432.24 276.741 432.688 277.189 433.24 277.189V275.189ZM438.2 277.189C438.752 277.189 439.2 276.741 439.2 276.189C439.2 275.636 438.752 275.189 438.2 275.189V277.189ZM443.16 275.189C442.608 275.189 442.16 275.636 442.16 276.189C442.16 276.741 442.608 277.189 443.16 277.189V275.189ZM448.12 277.189C448.672 277.189 449.12 276.741 449.12 276.189C449.12 275.636 448.672 275.189 448.12 275.189V277.189ZM453.08 275.189C452.528 275.189 452.08 275.636 452.08 276.189C452.08 276.741 452.528 277.189 453.08 277.189V275.189ZM458.04 277.189C458.592 277.189 459.04 276.741 459.04 276.189C459.04 275.636 458.592 275.189 458.04 275.189V277.189ZM463 275.189C462.448 275.189 462 275.636 462 276.189C462 276.741 462.448 277.189 463 277.189V275.189ZM467.96 277.189C468.512 277.189 468.96 276.741 468.96 276.189C468.96 275.636 468.512 275.189 467.96 275.189V277.189ZM472.92 275.189C472.368 275.189 471.92 275.636 471.92 276.189C471.92 276.741 472.368 277.189 472.92 277.189V275.189ZM477.88 277.189C478.432 277.189 478.88 276.741 478.88 276.189C478.88 275.636 478.432 275.189 477.88 275.189V277.189ZM482.84 275.189C482.288 275.189 481.84 275.636 481.84 276.189C481.84 276.741 482.288 277.189 482.84 277.189V275.189ZM487.8 277.189C488.352 277.189 488.8 276.741 488.8 276.189C488.8 275.636 488.352 275.189 487.8 275.189V277.189ZM492.76 275.189C492.208 275.189 491.76 275.636 491.76 276.189C491.76 276.741 492.208 277.189 492.76 277.189V275.189ZM497.72 277.189C498.272 277.189 498.72 276.741 498.72 276.189C498.72 275.636 498.272 275.189 497.72 275.189V277.189ZM502.68 275.189C502.128 275.189 501.68 275.636 501.68 276.189C501.68 276.741 502.128 277.189 502.68 277.189V275.189ZM507.64 277.189C508.192 277.189 508.64 276.741 508.64 276.189C508.64 275.636 508.192 275.189 507.64 275.189V277.189ZM512.6 275.189C512.047 275.189 511.6 275.636 511.6 276.189C511.6 276.741 512.047 277.189 512.6 277.189V275.189ZM517.56 277.189C518.112 277.189 518.56 276.741 518.56 276.189C518.56 275.636 518.112 275.189 517.56 275.189V277.189ZM522.52 275.189C521.967 275.189 521.52 275.636 521.52 276.189C521.52 276.741 521.967 277.189 522.52 277.189V275.189ZM527.649 277.317C528.198 277.37 528.687 276.968 528.741 276.418C528.794 275.869 528.392 275.38 527.842 275.326L527.649 277.317ZM533.421 276.43C532.892 276.27 532.334 276.569 532.174 277.097C532.014 277.626 532.312 278.184 532.841 278.344L533.421 276.43ZM537.729 280.371C538.216 280.632 538.822 280.449 539.083 279.962C539.344 279.475 539.16 278.869 538.674 278.608L537.729 280.371ZM543.398 281.771C542.971 281.42 542.341 281.482 541.991 281.909C541.64 282.335 541.702 282.965 542.128 283.316L543.398 281.771ZM545.872 287.06C546.223 287.487 546.853 287.549 547.28 287.198C547.707 286.847 547.768 286.217 547.418 285.79L545.872 287.06ZM550.58 290.515C550.32 290.028 549.713 289.845 549.227 290.106C548.74 290.366 548.557 290.972 548.817 291.459L550.58 290.515ZM550.844 296.348C551.004 296.876 551.563 297.175 552.091 297.015C552.62 296.855 552.918 296.296 552.758 295.768L550.844 296.348ZM553.862 301.346C553.809 300.796 553.32 300.394 552.77 300.448C552.221 300.501 551.818 300.99 551.872 301.54L553.862 301.346ZM552 306.635C552 307.188 552.448 307.635 553 307.635C553.552 307.635 554 307.188 554 306.635H552ZM554 311.529C554 310.977 553.552 310.529 553 310.529C552.448 310.529 552 310.977 552 311.529H554ZM552 316.423C552 316.975 552.448 317.423 553 317.423C553.552 317.423 554 316.975 554 316.423H552ZM554 321.317C554 320.764 553.552 320.317 553 320.317C552.448 320.317 552 320.764 552 321.317H554ZM552 326.21C552 326.763 552.448 327.21 553 327.21C553.552 327.21 554 326.763 554 326.21H552ZM554 331.104C554 330.552 553.552 330.104 553 330.104C552.448 330.104 552 330.552 552 331.104H554ZM552 335.998C552 336.55 552.448 336.998 553 336.998C553.552 336.998 554 336.55 554 335.998H552ZM554 340.891C554 340.339 553.552 339.891 553 339.891C552.448 339.891 552 340.339 552 340.891H554ZM552 345.785C552 346.337 552.448 346.785 553 346.785C553.552 346.785 554 346.337 554 345.785H552ZM554 350.679C554 350.127 553.552 349.679 553 349.679C552.448 349.679 552 350.127 552 350.679H554ZM552 355.573C552 356.125 552.448 356.573 553 356.573C553.552 356.573 554 356.125 554 355.573H552ZM554 360.466C554 359.914 553.552 359.466 553 359.466C552.448 359.466 552 359.914 552 360.466H554ZM552 365.36C552 365.912 552.448 366.36 553 366.36C553.552 366.36 554 365.912 554 365.36H552ZM554 370.254C554 369.701 553.552 369.254 553 369.254C552.448 369.254 552 369.701 552 370.254H554ZM552 375.147C552 375.7 552.448 376.147 553 376.147C553.552 376.147 554 375.7 554 375.147H552ZM554 380.041C554 379.489 553.552 379.041 553 379.041C552.448 379.041 552 379.489 552 380.041H554ZM552 384.935C552 385.487 552.448 385.935 553 385.935C553.552 385.935 554 385.487 554 384.935H552ZM554 389.829C554 389.276 553.552 388.829 553 388.829C552.448 388.829 552 389.276 552 389.829H554ZM552 394.722C552 395.275 552.448 395.722 553 395.722C553.552 395.722 554 395.275 554 394.722H552ZM554 399.616C554 399.064 553.552 398.616 553 398.616C552.448 398.616 552 399.064 552 399.616H554ZM552 404.51C552 405.062 552.448 405.51 553 405.51C553.552 405.51 554 405.062 554 404.51H552ZM554 409.403C554 408.851 553.552 408.403 553 408.403C552.448 408.403 552 408.851 552 409.403H554ZM552 414.297C552 414.849 552.448 415.297 553 415.297C553.552 415.297 554 414.849 554 414.297H552ZM554 419.191C554 418.639 553.552 418.191 553 418.191C552.448 418.191 552 418.639 552 419.191H554ZM552 424.085C552 424.637 552.448 425.085 553 425.085C553.552 425.085 554 424.637 554 424.085H552ZM554 428.978C554 428.426 553.552 427.978 553 427.978C552.448 427.978 552 428.426 552 428.978H554ZM552 433.872C552 434.424 552.448 434.872 553 434.872C553.552 434.872 554 434.424 554 433.872H552ZM554 438.766C554 438.213 553.552 437.766 553 437.766C552.448 437.766 552 438.213 552 438.766H554ZM552 443.659C552 444.212 552.448 444.659 553 444.659C553.552 444.659 554 444.212 554 443.659H552ZM554 448.553C554 448.001 553.552 447.553 553 447.553C552.448 447.553 552 448.001 552 448.553H554ZM0 1V3.47189H2V1H0ZM0 8.41566V13.3594H2V8.41566H0ZM0 18.3032V23.247H2V18.3032H0ZM0 28.1907V33.1345H2V28.1907H0ZM0 38.0783V43.0221H2V38.0783H0ZM0 47.9658V52.9096H2V47.9658H0ZM0 57.8534V62.7971H2V57.8534H0ZM0 67.7409V72.6847H2V67.7409H0ZM0 77.6284V82.5722H2V77.6284H0ZM0 87.516V92.4598H2V87.516H0ZM0 97.4035V102.347H2V97.4035H0ZM0 107.291V112.235H2V107.291H0ZM0 117.179V122.122H2V117.179H0ZM0 127.066V132.01H2V127.066H0ZM0 136.954V141.897H2V136.954H0ZM0 146.841V151.785H2V146.841H0ZM0 156.729V161.673H2V156.729H0ZM0 166.616V171.56H2V166.616H0ZM0 176.504V181.448H2V176.504H0ZM0 186.391V191.335H2V186.391H0ZM0 196.279V201.223H2V196.279H0ZM0 206.167V211.11H2V206.167H0ZM0 216.054V220.998H2V216.054H0ZM0 225.942V230.885H2V225.942H0ZM0 235.829V240.773H2V235.829H0ZM0 245.717V248.189H2V245.717H0ZM0 248.189C0 249.147 0.0465617 250.096 0.137599 251.031L2.12819 250.837C2.04341 249.966 2 249.083 2 248.189H0ZM1.24173 256.609C1.79757 258.444 2.5302 260.201 3.41972 261.862L5.18275 260.918C4.35475 259.372 3.67299 257.736 3.15581 256.029L1.24173 256.609ZM6.58223 266.587C7.78779 268.054 9.13459 269.401 10.6019 270.606L11.8715 269.061C10.5049 267.938 9.25041 266.684 8.12753 265.317L6.58223 266.587ZM15.3264 273.769C16.9871 274.658 18.7447 275.391 20.5793 275.947L21.1592 274.033C19.4522 273.516 17.8166 272.834 16.2707 272.006L15.3264 273.769ZM26.1576 277.051C27.093 277.142 28.0412 277.189 29 277.189V275.189C28.106 275.189 27.2225 275.145 26.3513 275.06L26.1576 277.051ZM29 277.189H31.48V275.189H29V277.189ZM36.44 277.189H41.4V275.189H36.44V277.189ZM46.36 277.189H51.32V275.189H46.36V277.189ZM56.28 277.189H61.24V275.189H56.28V277.189ZM66.2 277.189H71.16V275.189H66.2V277.189ZM76.12 277.189H81.08V275.189H76.12V277.189ZM86.04 277.189H91V275.189H86.04V277.189ZM95.96 277.189H100.92V275.189H95.96V277.189ZM105.88 277.189H110.84V275.189H105.88V277.189ZM115.8 277.189H120.76V275.189H115.8V277.189ZM125.72 277.189H130.68V275.189H125.72V277.189ZM135.64 277.189H140.6V275.189H135.64V277.189ZM145.56 277.189H150.52V275.189H145.56V277.189ZM155.48 277.189H160.44V275.189H155.48V277.189ZM165.4 277.189H170.36V275.189H165.4V277.189ZM175.32 277.189H180.28V275.189H175.32V277.189ZM185.24 277.189H190.2V275.189H185.24V277.189ZM195.16 277.189H200.12V275.189H195.16V277.189ZM205.08 277.189H210.04V275.189H205.08V277.189ZM215 277.189H219.96V275.189H215V277.189ZM224.92 277.189H229.88V275.189H224.92V277.189ZM234.84 277.189H239.8V275.189H234.84V277.189ZM244.76 277.189H249.72V275.189H244.76V277.189ZM254.68 277.189H259.64V275.189H254.68V277.189ZM264.6 277.189H269.56V275.189H264.6V277.189ZM274.52 277.189H279.48V275.189H274.52V277.189ZM284.44 277.189H289.4V275.189H284.44V277.189ZM294.36 277.189H299.32V275.189H294.36V277.189ZM304.28 277.189H309.24V275.189H304.28V277.189ZM314.2 277.189H319.16V275.189H314.2V277.189ZM324.12 277.189H329.08V275.189H324.12V277.189ZM334.04 277.189H339V275.189H334.04V277.189ZM343.96 277.189H348.92V275.189H343.96V277.189ZM353.88 277.189H358.84V275.189H353.88V277.189ZM363.8 277.189H368.76V275.189H363.8V277.189ZM373.72 277.189H378.68V275.189H373.72V277.189ZM383.64 277.189H388.6V275.189H383.64V277.189ZM393.56 277.189H398.52V275.189H393.56V277.189ZM403.48 277.189H408.44V275.189H403.48V277.189ZM413.4 277.189H418.36V275.189H413.4V277.189ZM423.32 277.189H428.28V275.189H423.32V277.189ZM433.24 277.189H438.2V275.189H433.24V277.189ZM443.16 277.189H448.12V275.189H443.16V277.189ZM453.08 277.189H458.04V275.189H453.08V277.189ZM463 277.189H467.96V275.189H463V277.189ZM472.92 277.189H477.88V275.189H472.92V277.189ZM482.84 277.189H487.8V275.189H482.84V277.189ZM492.76 277.189H497.72V275.189H492.76V277.189ZM502.68 277.189H507.64V275.189H502.68V277.189ZM512.6 277.189H517.56V275.189H512.6V277.189ZM522.52 277.189H525V275.189H522.52V277.189ZM525 277.189C525.894 277.189 526.778 277.232 527.649 277.317L527.842 275.326C526.907 275.235 525.959 275.189 525 275.189V277.189ZM532.841 278.344C534.548 278.862 536.183 279.543 537.729 280.371L538.674 278.608C537.013 277.719 535.255 276.986 533.421 276.43L532.841 278.344ZM542.128 283.316C543.495 284.439 544.75 285.693 545.872 287.06L547.418 285.79C546.212 284.323 544.865 282.976 543.398 281.771L542.128 283.316ZM548.817 291.459C549.645 293.005 550.327 294.641 550.844 296.348L552.758 295.768C552.202 293.933 551.47 292.176 550.58 290.515L548.817 291.459ZM551.872 301.54C551.957 302.411 552 303.295 552 304.189H554C554 303.23 553.953 302.282 553.862 301.346L551.872 301.54ZM552 304.189V306.635H554V304.189H552ZM552 311.529V316.423H554V311.529H552ZM552 321.317V326.21H554V321.317H552ZM552 331.104V335.998H554V331.104H552ZM552 340.891V345.785H554V340.891H552ZM552 350.679V355.573H554V350.679H552ZM552 360.466V365.36H554V360.466H552ZM552 370.254V375.147H554V370.254H552ZM552 380.041V384.935H554V380.041H552ZM552 389.829V394.722H554V389.829H552ZM552 399.616V404.51H554V399.616H552ZM552 409.403V414.297H554V409.403H552ZM552 419.191V424.085H554V419.191H552ZM552 428.978V433.872H554V428.978H552ZM552 438.766V443.659H554V438.766H552Z" fill="url(#paint0_linear)"/>
<defs>
<linearGradient id="paint0_linear" x1="74.7822" y1="-249.472" x2="634.302" y2="-83.5885" gradientUnits="userSpaceOnUse">
<stop stop-color="#FF424F"/>
<stop offset="1" stop-color="#C45FBF"/>
</linearGradient>
</defs>
</svg>
