<svg width="517" height="429" viewBox="0 0 517 429" fill="none" xmlns="http://www.w3.org/2000/svg">
<path opacity="0.5" d="M517 1.5C517 0.947715 516.552 0.5 516 0.5C515.448 0.5 515 0.947715 515 1.5H517ZM6 428.5L11.7735 418.5H0.226497L6 428.5ZM7 425.975C7 425.422 6.55228 424.975 6 424.975C5.44772 424.975 5 425.422 5 425.975H7ZM5 420.924C5 421.477 5.44772 421.924 6 421.924C6.55228 421.924 7 421.477 7 420.924H5ZM7 415.874C7 415.321 6.55228 414.874 6 414.874C5.44772 414.874 5 415.321 5 415.874H7ZM5 410.823C5 411.376 5.44772 411.823 6 411.823C6.55228 411.823 7 411.376 7 410.823H5ZM7 405.773C7 405.22 6.55228 404.773 6 404.773C5.44772 404.773 5 405.22 5 405.773H7ZM5 400.722C5 401.275 5.44772 401.722 6 401.722C6.55228 401.722 7 401.275 7 400.722H5ZM7 395.672C7 395.119 6.55228 394.672 6 394.672C5.44772 394.672 5 395.119 5 395.672H7ZM5 390.621C5 391.174 5.44772 391.621 6 391.621C6.55228 391.621 7 391.174 7 390.621H5ZM7 385.571C7 385.018 6.55228 384.571 6 384.571C5.44772 384.571 5 385.018 5 385.571H7ZM5 380.52C5 381.073 5.44772 381.52 6 381.52C6.55228 381.52 7 381.073 7 380.52H5ZM7 375.47C7 374.918 6.55228 374.47 6 374.47C5.44772 374.47 5 374.918 5 375.47H7ZM5 370.419C5 370.972 5.44772 371.419 6 371.419C6.55228 371.419 7 370.972 7 370.419H5ZM7 365.369C7 364.817 6.55228 364.369 6 364.369C5.44772 364.369 5 364.817 5 365.369H7ZM5 360.318C5 360.871 5.44772 361.318 6 361.318C6.55228 361.318 7 360.871 7 360.318H5ZM7 355.268C7 354.716 6.55228 354.268 6 354.268C5.44772 354.268 5 354.716 5 355.268H7ZM5 350.217C5 350.77 5.44772 351.217 6 351.217C6.55228 351.217 7 350.77 7 350.217H5ZM7 345.167C7 344.615 6.55228 344.167 6 344.167C5.44772 344.167 5 344.615 5 345.167H7ZM5 340.116C5 340.669 5.44772 341.116 6 341.116C6.55228 341.116 7 340.669 7 340.116H5ZM7 335.066C7 334.514 6.55228 334.066 6 334.066C5.44772 334.066 5 334.514 5 335.066H7ZM5 330.015C5 330.568 5.44772 331.015 6 331.015C6.55228 331.015 7 330.568 7 330.015H5ZM7 324.965C7 324.413 6.55228 323.965 6 323.965C5.44772 323.965 5 324.413 5 324.965H7ZM5 319.914C5 320.467 5.44772 320.914 6 320.914C6.55228 320.914 7 320.467 7 319.914H5ZM7 314.864C7 314.312 6.55228 313.864 6 313.864C5.44772 313.864 5 314.312 5 314.864H7ZM5 309.813C5 310.366 5.44772 310.813 6 310.813C6.55228 310.813 7 310.366 7 309.813H5ZM7 304.763C7 304.211 6.55228 303.763 6 303.763C5.44772 303.763 5 304.211 5 304.763H7ZM5 299.712C5 300.265 5.44772 300.712 6 300.712C6.55228 300.712 7 300.265 7 299.712H5ZM7 294.662C7 294.11 6.55228 293.662 6 293.662C5.44772 293.662 5 294.11 5 294.662H7ZM5 289.611C5 290.164 5.44772 290.611 6 290.611C6.55228 290.611 7 290.164 7 289.611H5ZM7 284.561C7 284.009 6.55228 283.561 6 283.561C5.44772 283.561 5 284.009 5 284.561H7ZM5 279.51C5 280.063 5.44772 280.51 6 280.51C6.55228 280.51 7 280.063 7 279.51H5ZM7 274.46C7 273.908 6.55228 273.46 6 273.46C5.44772 273.46 5 273.908 5 274.46H7ZM5 269.409C5 269.962 5.44772 270.409 6 270.409C6.55228 270.409 7 269.962 7 269.409H5ZM7 264.359C7 263.807 6.55228 263.359 6 263.359C5.44772 263.359 5 263.807 5 264.359H7ZM5 259.308C5 259.861 5.44772 260.308 6 260.308C6.55228 260.308 7 259.861 7 259.308H5ZM7 254.258C7 253.706 6.55228 253.258 6 253.258C5.44772 253.258 5 253.706 5 254.258H7ZM5 249.207C5 249.76 5.44772 250.207 6 250.207C6.55228 250.207 7 249.76 7 249.207H5ZM7 244.157C7 243.605 6.55228 243.157 6 243.157C5.44772 243.157 5 243.605 5 244.157H7ZM5 239.106C5 239.659 5.44772 240.106 6 240.106C6.55228 240.106 7 239.659 7 239.106H5ZM7 234.056C7 233.504 6.55228 233.056 6 233.056C5.44772 233.056 5 233.504 5 234.056H7ZM5 229.005C5 229.558 5.44772 230.005 6 230.005C6.55228 230.005 7 229.558 7 229.005H5ZM7 223.955C7 223.403 6.55228 222.955 6 222.955C5.44772 222.955 5 223.403 5 223.955H7ZM5 218.904C5 219.457 5.44772 219.904 6 219.904C6.55228 219.904 7 219.457 7 218.904H5ZM7 213.854C7 213.302 6.55228 212.854 6 212.854C5.44772 212.854 5 213.302 5 213.854H7ZM5 208.803C5 209.356 5.44772 209.803 6 209.803C6.55228 209.803 7 209.356 7 208.803H5ZM7 203.753C7 203.201 6.55228 202.753 6 202.753C5.44772 202.753 5 203.201 5 203.753H7ZM5 198.702C5 199.255 5.44772 199.702 6 199.702C6.55228 199.702 7 199.255 7 198.702H5ZM7 193.652C7 193.1 6.55228 192.652 6 192.652C5.44772 192.652 5 193.1 5 193.652H7ZM5 188.602C5 189.154 5.44772 189.602 6 189.602C6.55228 189.602 7 189.154 7 188.602H5ZM7 183.551C7 182.999 6.55228 182.551 6 182.551C5.44772 182.551 5 182.999 5 183.551H7ZM5 178.501C5 179.053 5.44772 179.501 6 179.501C6.55228 179.501 7 179.053 7 178.501H5ZM7 173.45C7 172.898 6.55228 172.45 6 172.45C5.44772 172.45 5 172.898 5 173.45H7ZM5 168.4C5 168.952 5.44772 169.4 6 169.4C6.55228 169.4 7 168.952 7 168.4H5ZM7 163.349C7 162.797 6.55228 162.349 6 162.349C5.44772 162.349 5 162.797 5 163.349H7ZM5 158.299C5 158.851 5.44772 159.299 6 159.299C6.55228 159.299 7 158.851 7 158.299H5ZM7.12819 153.125C7.18169 152.575 6.77945 152.086 6.22976 152.032C5.68007 151.979 5.1911 152.381 5.1376 152.931L7.12819 153.125ZM6.24173 147.353C6.08159 147.881 6.38026 148.439 6.90881 148.6C7.43737 148.76 7.99567 148.461 8.15581 147.932L6.24173 147.353ZM10.1827 143.044C10.4435 142.557 10.2602 141.951 9.77339 141.69C9.28654 141.429 8.68048 141.613 8.41971 142.1L10.1827 143.044ZM11.5822 137.375C11.2316 137.802 11.2933 138.432 11.7201 138.783C12.1468 139.133 12.7769 139.071 13.1275 138.645L11.5822 137.375ZM16.8715 134.901C17.2983 134.55 17.36 133.92 17.0094 133.493C16.6588 133.067 16.0286 133.005 15.6019 133.355L16.8715 134.901ZM20.3264 130.193C19.8395 130.454 19.6563 131.06 19.917 131.547C20.1778 132.033 20.7839 132.217 21.2707 131.956L20.3264 130.193ZM26.1592 129.929C26.6878 129.769 26.9865 129.211 26.8263 128.682C26.6662 128.153 26.1079 127.855 25.5793 128.015L26.1592 129.929ZM31.1576 126.911C30.6079 126.964 30.2057 127.453 30.2592 128.003C30.3127 128.553 30.8016 128.955 31.3513 128.901L31.1576 126.911ZM36.5222 128.773C37.0745 128.773 37.5222 128.325 37.5222 127.773C37.5222 127.221 37.0745 126.773 36.5222 126.773V128.773ZM41.5667 126.773C41.0144 126.773 40.5667 127.221 40.5667 127.773C40.5667 128.325 41.0144 128.773 41.5667 128.773V126.773ZM46.6111 128.773C47.1634 128.773 47.6111 128.325 47.6111 127.773C47.6111 127.221 47.1634 126.773 46.6111 126.773V128.773ZM51.6556 126.773C51.1033 126.773 50.6556 127.221 50.6556 127.773C50.6556 128.325 51.1033 128.773 51.6556 128.773V126.773ZM56.7 128.773C57.2523 128.773 57.7 128.325 57.7 127.773C57.7 127.221 57.2523 126.773 56.7 126.773V128.773ZM61.7444 126.773C61.1922 126.773 60.7444 127.221 60.7444 127.773C60.7444 128.325 61.1922 128.773 61.7444 128.773V126.773ZM66.7889 128.773C67.3412 128.773 67.7889 128.325 67.7889 127.773C67.7889 127.221 67.3412 126.773 66.7889 126.773V128.773ZM71.8333 126.773C71.2811 126.773 70.8333 127.221 70.8333 127.773C70.8333 128.325 71.2811 128.773 71.8333 128.773V126.773ZM76.8778 128.773C77.4301 128.773 77.8778 128.325 77.8778 127.773C77.8778 127.221 77.4301 126.773 76.8778 126.773V128.773ZM81.9222 126.773C81.3699 126.773 80.9222 127.221 80.9222 127.773C80.9222 128.325 81.3699 128.773 81.9222 128.773V126.773ZM86.9667 128.773C87.519 128.773 87.9667 128.325 87.9667 127.773C87.9667 127.221 87.519 126.773 86.9667 126.773V128.773ZM92.0111 126.773C91.4588 126.773 91.0111 127.221 91.0111 127.773C91.0111 128.325 91.4588 128.773 92.0111 128.773V126.773ZM97.0556 128.773C97.6078 128.773 98.0556 128.325 98.0556 127.773C98.0556 127.221 97.6078 126.773 97.0556 126.773V128.773ZM102.1 126.773C101.548 126.773 101.1 127.221 101.1 127.773C101.1 128.325 101.548 128.773 102.1 128.773V126.773ZM107.144 128.773C107.697 128.773 108.144 128.325 108.144 127.773C108.144 127.221 107.697 126.773 107.144 126.773V128.773ZM112.189 126.773C111.637 126.773 111.189 127.221 111.189 127.773C111.189 128.325 111.637 128.773 112.189 128.773V126.773ZM117.233 128.773C117.786 128.773 118.233 128.325 118.233 127.773C118.233 127.221 117.786 126.773 117.233 126.773V128.773ZM122.278 126.773C121.725 126.773 121.278 127.221 121.278 127.773C121.278 128.325 121.725 128.773 122.278 128.773V126.773ZM127.322 128.773C127.874 128.773 128.322 128.325 128.322 127.773C128.322 127.221 127.874 126.773 127.322 126.773V128.773ZM132.367 126.773C131.814 126.773 131.367 127.221 131.367 127.773C131.367 128.325 131.814 128.773 132.367 128.773V126.773ZM137.411 128.773C137.963 128.773 138.411 128.325 138.411 127.773C138.411 127.221 137.963 126.773 137.411 126.773V128.773ZM142.456 126.773C141.903 126.773 141.456 127.221 141.456 127.773C141.456 128.325 141.903 128.773 142.456 128.773V126.773ZM147.5 128.773C148.052 128.773 148.5 128.325 148.5 127.773C148.5 127.221 148.052 126.773 147.5 126.773V128.773ZM152.544 126.773C151.992 126.773 151.544 127.221 151.544 127.773C151.544 128.325 151.992 128.773 152.544 128.773V126.773ZM157.589 128.773C158.141 128.773 158.589 128.325 158.589 127.773C158.589 127.221 158.141 126.773 157.589 126.773V128.773ZM162.633 126.773C162.081 126.773 161.633 127.221 161.633 127.773C161.633 128.325 162.081 128.773 162.633 128.773V126.773ZM167.678 128.773C168.23 128.773 168.678 128.325 168.678 127.773C168.678 127.221 168.23 126.773 167.678 126.773V128.773ZM172.722 126.773C172.17 126.773 171.722 127.221 171.722 127.773C171.722 128.325 172.17 128.773 172.722 128.773V126.773ZM177.767 128.773C178.319 128.773 178.767 128.325 178.767 127.773C178.767 127.221 178.319 126.773 177.767 126.773V128.773ZM182.811 126.773C182.259 126.773 181.811 127.221 181.811 127.773C181.811 128.325 182.259 128.773 182.811 128.773V126.773ZM187.856 128.773C188.408 128.773 188.856 128.325 188.856 127.773C188.856 127.221 188.408 126.773 187.856 126.773V128.773ZM192.9 126.773C192.348 126.773 191.9 127.221 191.9 127.773C191.9 128.325 192.348 128.773 192.9 128.773V126.773ZM197.944 128.773C198.497 128.773 198.944 128.325 198.944 127.773C198.944 127.221 198.497 126.773 197.944 126.773V128.773ZM202.989 126.773C202.437 126.773 201.989 127.221 201.989 127.773C201.989 128.325 202.437 128.773 202.989 128.773V126.773ZM208.033 128.773C208.586 128.773 209.033 128.325 209.033 127.773C209.033 127.221 208.586 126.773 208.033 126.773V128.773ZM213.078 126.773C212.525 126.773 212.078 127.221 212.078 127.773C212.078 128.325 212.525 128.773 213.078 128.773V126.773ZM218.122 128.773C218.675 128.773 219.122 128.325 219.122 127.773C219.122 127.221 218.675 126.773 218.122 126.773V128.773ZM223.167 126.773C222.614 126.773 222.167 127.221 222.167 127.773C222.167 128.325 222.614 128.773 223.167 128.773V126.773ZM228.211 128.773C228.763 128.773 229.211 128.325 229.211 127.773C229.211 127.221 228.763 126.773 228.211 126.773V128.773ZM233.256 126.773C232.703 126.773 232.256 127.221 232.256 127.773C232.256 128.325 232.703 128.773 233.256 128.773V126.773ZM238.3 128.773C238.852 128.773 239.3 128.325 239.3 127.773C239.3 127.221 238.852 126.773 238.3 126.773V128.773ZM243.344 126.773C242.792 126.773 242.344 127.221 242.344 127.773C242.344 128.325 242.792 128.773 243.344 128.773V126.773ZM248.389 128.773C248.941 128.773 249.389 128.325 249.389 127.773C249.389 127.221 248.941 126.773 248.389 126.773V128.773ZM253.433 126.773C252.881 126.773 252.433 127.221 252.433 127.773C252.433 128.325 252.881 128.773 253.433 128.773V126.773ZM258.478 128.773C259.03 128.773 259.478 128.325 259.478 127.773C259.478 127.221 259.03 126.773 258.478 126.773V128.773ZM263.522 126.773C262.97 126.773 262.522 127.221 262.522 127.773C262.522 128.325 262.97 128.773 263.522 128.773V126.773ZM268.567 128.773C269.119 128.773 269.567 128.325 269.567 127.773C269.567 127.221 269.119 126.773 268.567 126.773V128.773ZM273.611 126.773C273.059 126.773 272.611 127.221 272.611 127.773C272.611 128.325 273.059 128.773 273.611 128.773V126.773ZM278.656 128.773C279.208 128.773 279.656 128.325 279.656 127.773C279.656 127.221 279.208 126.773 278.656 126.773V128.773ZM283.7 126.773C283.148 126.773 282.7 127.221 282.7 127.773C282.7 128.325 283.148 128.773 283.7 128.773V126.773ZM288.745 128.773C289.297 128.773 289.745 128.325 289.745 127.773C289.745 127.221 289.297 126.773 288.745 126.773V128.773ZM293.789 126.773C293.237 126.773 292.789 127.221 292.789 127.773C292.789 128.325 293.237 128.773 293.789 128.773V126.773ZM298.833 128.773C299.386 128.773 299.833 128.325 299.833 127.773C299.833 127.221 299.386 126.773 298.833 126.773V128.773ZM303.878 126.773C303.326 126.773 302.878 127.221 302.878 127.773C302.878 128.325 303.326 128.773 303.878 128.773V126.773ZM308.922 128.773C309.475 128.773 309.922 128.325 309.922 127.773C309.922 127.221 309.475 126.773 308.922 126.773V128.773ZM313.967 126.773C313.414 126.773 312.967 127.221 312.967 127.773C312.967 128.325 313.414 128.773 313.967 128.773V126.773ZM319.011 128.773C319.563 128.773 320.011 128.325 320.011 127.773C320.011 127.221 319.563 126.773 319.011 126.773V128.773ZM324.056 126.773C323.503 126.773 323.056 127.221 323.056 127.773C323.056 128.325 323.503 128.773 324.056 128.773V126.773ZM329.1 128.773C329.652 128.773 330.1 128.325 330.1 127.773C330.1 127.221 329.652 126.773 329.1 126.773V128.773ZM334.144 126.773C333.592 126.773 333.144 127.221 333.144 127.773C333.144 128.325 333.592 128.773 334.144 128.773V126.773ZM339.189 128.773C339.741 128.773 340.189 128.325 340.189 127.773C340.189 127.221 339.741 126.773 339.189 126.773V128.773ZM344.233 126.773C343.681 126.773 343.233 127.221 343.233 127.773C343.233 128.325 343.681 128.773 344.233 128.773V126.773ZM349.278 128.773C349.83 128.773 350.278 128.325 350.278 127.773C350.278 127.221 349.83 126.773 349.278 126.773V128.773ZM354.322 126.773C353.77 126.773 353.322 127.221 353.322 127.773C353.322 128.325 353.77 128.773 354.322 128.773V126.773ZM359.367 128.773C359.919 128.773 360.367 128.325 360.367 127.773C360.367 127.221 359.919 126.773 359.367 126.773V128.773ZM364.411 126.773C363.859 126.773 363.411 127.221 363.411 127.773C363.411 128.325 363.859 128.773 364.411 128.773V126.773ZM369.455 128.773C370.008 128.773 370.455 128.325 370.455 127.773C370.455 127.221 370.008 126.773 369.455 126.773V128.773ZM374.5 126.773C373.948 126.773 373.5 127.221 373.5 127.773C373.5 128.325 373.948 128.773 374.5 128.773V126.773ZM379.544 128.773C380.097 128.773 380.544 128.325 380.544 127.773C380.544 127.221 380.097 126.773 379.544 126.773V128.773ZM384.589 126.773C384.036 126.773 383.589 127.221 383.589 127.773C383.589 128.325 384.036 128.773 384.589 128.773V126.773ZM389.633 128.773C390.185 128.773 390.633 128.325 390.633 127.773C390.633 127.221 390.185 126.773 389.633 126.773V128.773ZM394.678 126.773C394.125 126.773 393.678 127.221 393.678 127.773C393.678 128.325 394.125 128.773 394.678 128.773V126.773ZM399.722 128.773C400.274 128.773 400.722 128.325 400.722 127.773C400.722 127.221 400.274 126.773 399.722 126.773V128.773ZM404.767 126.773C404.214 126.773 403.767 127.221 403.767 127.773C403.767 128.325 404.214 128.773 404.767 128.773V126.773ZM409.811 128.773C410.363 128.773 410.811 128.325 410.811 127.773C410.811 127.221 410.363 126.773 409.811 126.773V128.773ZM414.855 126.773C414.303 126.773 413.855 127.221 413.855 127.773C413.855 128.325 414.303 128.773 414.855 128.773V126.773ZM419.9 128.773C420.452 128.773 420.9 128.325 420.9 127.773C420.9 127.221 420.452 126.773 419.9 126.773V128.773ZM424.944 126.773C424.392 126.773 423.944 127.221 423.944 127.773C423.944 128.325 424.392 128.773 424.944 128.773V126.773ZM429.989 128.773C430.541 128.773 430.989 128.325 430.989 127.773C430.989 127.221 430.541 126.773 429.989 126.773V128.773ZM435.033 126.773C434.481 126.773 434.033 127.221 434.033 127.773C434.033 128.325 434.481 128.773 435.033 128.773V126.773ZM440.078 128.773C440.63 128.773 441.078 128.325 441.078 127.773C441.078 127.221 440.63 126.773 440.078 126.773V128.773ZM445.122 126.773C444.57 126.773 444.122 127.221 444.122 127.773C444.122 128.325 444.57 128.773 445.122 128.773V126.773ZM450.166 128.773C450.719 128.773 451.166 128.325 451.166 127.773C451.166 127.221 450.719 126.773 450.166 126.773V128.773ZM455.211 126.773C454.659 126.773 454.211 127.221 454.211 127.773C454.211 128.325 454.659 128.773 455.211 128.773V126.773ZM460.255 128.773C460.808 128.773 461.255 128.325 461.255 127.773C461.255 127.221 460.808 126.773 460.255 126.773V128.773ZM465.3 126.773C464.747 126.773 464.3 127.221 464.3 127.773C464.3 128.325 464.747 128.773 465.3 128.773V126.773ZM470.344 128.773C470.896 128.773 471.344 128.325 471.344 127.773C471.344 127.221 470.896 126.773 470.344 126.773V128.773ZM475.389 126.773C474.836 126.773 474.389 127.221 474.389 127.773C474.389 128.325 474.836 128.773 475.389 128.773V126.773ZM480.433 128.773C480.985 128.773 481.433 128.325 481.433 127.773C481.433 127.221 480.985 126.773 480.433 126.773V128.773ZM485.477 126.773C484.925 126.773 484.477 127.221 484.477 127.773C484.477 128.325 484.925 128.773 485.477 128.773V126.773ZM490.842 128.636C491.392 128.582 491.794 128.093 491.741 127.543C491.687 126.994 491.198 126.591 490.649 126.645L490.842 128.636ZM495.841 125.617C495.312 125.778 495.014 126.336 495.174 126.864C495.334 127.393 495.892 127.692 496.421 127.531L495.841 125.617ZM501.674 125.353C502.16 125.093 502.344 124.487 502.083 124C501.822 123.513 501.216 123.33 500.729 123.59L501.674 125.353ZM505.128 120.646C504.702 120.996 504.64 121.626 504.991 122.053C505.341 122.48 505.971 122.542 506.398 122.191L505.128 120.646ZM510.418 118.171C510.768 117.745 510.707 117.114 510.28 116.764C509.853 116.413 509.223 116.475 508.872 116.902L510.418 118.171ZM511.817 112.502C511.556 112.989 511.74 113.595 512.227 113.856C512.713 114.117 513.32 113.934 513.58 113.447L511.817 112.502ZM515.758 108.194C515.918 107.665 515.62 107.107 515.091 106.947C514.563 106.787 514.004 107.085 513.844 107.614L515.758 108.194ZM514.872 102.422C514.818 102.972 515.221 103.461 515.77 103.514C516.32 103.568 516.809 103.165 516.862 102.616L514.872 102.422ZM517 97.3164C517 96.7641 516.552 96.3164 516 96.3164C515.448 96.3164 515 96.7641 515 97.3164H517ZM515 92.4027C515 92.955 515.448 93.4027 516 93.4027C516.552 93.4027 517 92.955 517 92.4027H515ZM517 87.489C517 86.9368 516.552 86.489 516 86.489C515.448 86.489 515 86.9368 515 87.489H517ZM515 82.5754C515 83.1277 515.448 83.5754 516 83.5754C516.552 83.5754 517 83.1277 517 82.5754H515ZM517 77.6617C517 77.1094 516.552 76.6617 516 76.6617C515.448 76.6617 515 77.1094 515 77.6617H517ZM515 72.7481C515 73.3003 515.448 73.7481 516 73.7481C516.552 73.7481 517 73.3003 517 72.7481H515ZM517 67.8344C517 67.2821 516.552 66.8344 516 66.8344C515.448 66.8344 515 67.2821 515 67.8344H517ZM515 62.9207C515 63.473 515.448 63.9207 516 63.9207C516.552 63.9207 517 63.473 517 62.9207H515ZM517 58.0071C517 57.4548 516.552 57.0071 516 57.0071C515.448 57.0071 515 57.4548 515 58.0071H517ZM515 53.0934C515 53.6457 515.448 54.0934 516 54.0934C516.552 54.0934 517 53.6457 517 53.0934H515ZM517 48.1798C517 47.6275 516.552 47.1798 516 47.1798C515.448 47.1798 515 47.6275 515 48.1798H517ZM515 43.2661C515 43.8184 515.448 44.2661 516 44.2661C516.552 44.2661 517 43.8184 517 43.2661H515ZM517 38.3525C517 37.8002 516.552 37.3525 516 37.3525C515.448 37.3525 515 37.8002 515 38.3525H517ZM515 33.4388C515 33.9911 515.448 34.4388 516 34.4388C516.552 34.4388 517 33.9911 517 33.4388H515ZM517 28.5251C517 27.9729 516.552 27.5251 516 27.5251C515.448 27.5251 515 27.9729 515 28.5251H517ZM515 23.6115C515 24.1638 515.448 24.6115 516 24.6115C516.552 24.6115 517 24.1638 517 23.6115H515ZM517 18.6978C517 18.1455 516.552 17.6978 516 17.6978C515.448 17.6978 515 18.1455 515 18.6978H517ZM515 13.7842C515 14.3365 515.448 14.7842 516 14.7842C516.552 14.7842 517 14.3365 517 13.7842H515ZM517 8.87051C517 8.31822 516.552 7.87051 516 7.87051C515.448 7.87051 515 8.31822 515 8.87051H517ZM515 3.95685C515 4.50914 515.448 4.95685 516 4.95685C516.552 4.95685 517 4.50914 517 3.95685H515ZM7 420.924V415.874H5V420.924H7ZM7 410.823V405.773H5V410.823H7ZM7 400.722V395.672H5V400.722H7ZM7 390.621V385.571H5V390.621H7ZM7 380.52V375.47H5V380.52H7ZM7 370.419V365.369H5V370.419H7ZM7 360.318V355.268H5V360.318H7ZM7 350.217V345.167H5V350.217H7ZM7 340.116V335.066H5V340.116H7ZM7 330.015V324.965H5V330.015H7ZM7 319.914V314.864H5V319.914H7ZM7 309.813V304.763H5V309.813H7ZM7 299.712V294.662H5V299.712H7ZM7 289.611V284.561H5V289.611H7ZM7 279.51V274.46H5V279.51H7ZM7 269.409V264.359H5V269.409H7ZM7 259.308V254.258H5V259.308H7ZM7 249.207V244.157H5V249.207H7ZM7 239.106V234.056H5V239.106H7ZM7 229.005V223.955H5V229.005H7ZM7 218.904V213.854H5V218.904H7ZM7 208.803V203.753H5V208.803H7ZM7 198.702V193.652H5V198.702H7ZM7 188.602V183.551H5V188.602H7ZM7 178.501V173.45H5V178.501H7ZM7 168.4V163.349H5V168.4H7ZM7 158.299V155.773H5V158.299H7ZM7 155.773C7 154.879 7.04341 153.996 7.12819 153.125L5.1376 152.931C5.04656 153.866 5 154.814 5 155.773H7ZM8.15581 147.932C8.67299 146.225 9.35475 144.59 10.1827 143.044L8.41971 142.1C7.5302 143.76 6.79756 145.518 6.24173 147.353L8.15581 147.932ZM13.1275 138.645C14.2504 137.278 15.5049 136.024 16.8715 134.901L15.6019 133.355C14.1346 134.561 12.7878 135.908 11.5822 137.375L13.1275 138.645ZM21.2707 131.956C22.8166 131.128 24.4522 130.446 26.1592 129.929L25.5793 128.015C23.7447 128.571 21.9871 129.303 20.3264 130.193L21.2707 131.956ZM31.3513 128.901C32.2225 128.817 33.106 128.773 34 128.773V126.773C33.0412 126.773 32.093 126.82 31.1576 126.911L31.3513 128.901ZM34 128.773H36.5222V126.773H34V128.773ZM41.5667 128.773H46.6111V126.773H41.5667V128.773ZM51.6556 128.773H56.7V126.773H51.6556V128.773ZM61.7444 128.773H66.7889V126.773H61.7444V128.773ZM71.8333 128.773H76.8778V126.773H71.8333V128.773ZM81.9222 128.773H86.9667V126.773H81.9222V128.773ZM92.0111 128.773H97.0556V126.773H92.0111V128.773ZM102.1 128.773H107.144V126.773H102.1V128.773ZM112.189 128.773H117.233V126.773H112.189V128.773ZM122.278 128.773H127.322V126.773H122.278V128.773ZM132.367 128.773H137.411V126.773H132.367V128.773ZM142.456 128.773H147.5V126.773H142.456V128.773ZM152.544 128.773H157.589V126.773H152.544V128.773ZM162.633 128.773H167.678V126.773H162.633V128.773ZM172.722 128.773H177.767V126.773H172.722V128.773ZM182.811 128.773H187.856V126.773H182.811V128.773ZM192.9 128.773H197.944V126.773H192.9V128.773ZM202.989 128.773H208.033V126.773H202.989V128.773ZM213.078 128.773H218.122V126.773H213.078V128.773ZM223.167 128.773H228.211V126.773H223.167V128.773ZM233.256 128.773H238.3V126.773H233.256V128.773ZM243.344 128.773H248.389V126.773H243.344V128.773ZM253.433 128.773H258.478V126.773H253.433V128.773ZM263.522 128.773H268.567V126.773H263.522V128.773ZM273.611 128.773H278.656V126.773H273.611V128.773ZM283.7 128.773H288.745V126.773H283.7V128.773ZM293.789 128.773H298.833V126.773H293.789V128.773ZM303.878 128.773H308.922V126.773H303.878V128.773ZM313.967 128.773H319.011V126.773H313.967V128.773ZM324.056 128.773H329.1V126.773H324.056V128.773ZM334.144 128.773H339.189V126.773H334.144V128.773ZM344.233 128.773H349.278V126.773H344.233V128.773ZM354.322 128.773H359.367V126.773H354.322V128.773ZM364.411 128.773H369.455V126.773H364.411V128.773ZM374.5 128.773H379.544V126.773H374.5V128.773ZM384.589 128.773H389.633V126.773H384.589V128.773ZM394.678 128.773H399.722V126.773H394.678V128.773ZM404.767 128.773H409.811V126.773H404.767V128.773ZM414.855 128.773H419.9V126.773H414.855V128.773ZM424.944 128.773H429.989V126.773H424.944V128.773ZM435.033 128.773H440.078V126.773H435.033V128.773ZM445.122 128.773H450.166V126.773H445.122V128.773ZM455.211 128.773H460.255V126.773H455.211V128.773ZM465.3 128.773H470.344V126.773H465.3V128.773ZM475.389 128.773H480.433V126.773H475.389V128.773ZM485.477 128.773H488V126.773H485.477V128.773ZM488 128.773C488.959 128.773 489.907 128.727 490.842 128.636L490.649 126.645C489.778 126.73 488.894 126.773 488 126.773V128.773ZM496.421 127.531C498.255 126.976 500.013 126.243 501.674 125.353L500.729 123.59C499.183 124.418 497.548 125.1 495.841 125.617L496.421 127.531ZM506.398 122.191C507.865 120.985 509.212 119.639 510.418 118.171L508.872 116.902C507.75 118.268 506.495 119.523 505.128 120.646L506.398 122.191ZM513.58 113.447C514.47 111.786 515.202 110.028 515.758 108.194L513.844 107.614C513.327 109.321 512.645 110.957 511.817 112.502L513.58 113.447ZM516.862 102.616C516.953 101.68 517 100.732 517 99.7732H515C515 100.667 514.957 101.551 514.872 102.422L516.862 102.616ZM517 99.7732V97.3164H515V99.7732H517ZM517 92.4027V87.489H515V92.4027H517ZM517 82.5754V77.6617H515V82.5754H517ZM517 72.7481V67.8344H515V72.7481H517ZM517 62.9207V58.0071H515V62.9207H517ZM517 53.0934V48.1798H515V53.0934H517ZM517 43.2661V38.3525H515V43.2661H517ZM517 33.4388V28.5251H515V33.4388H517ZM517 23.6115V18.6978H515V23.6115H517ZM517 13.7842V8.87051H515V13.7842H517ZM517 3.95685V1.5H515V3.95685H517Z" fill="url(#paint0_linear)"/>
<defs>
<linearGradient id="paint0_linear" x1="74.1683" y1="-236.17" x2="593.295" y2="-86.3132" gradientUnits="userSpaceOnUse">
<stop stop-color="#FF424F"/>
<stop offset="1" stop-color="#C45FBF"/>
</linearGradient>
</defs>
</svg>
