<svg width="170" height="170" viewBox="0 0 170 170" fill="none" xmlns="http://www.w3.org/2000/svg">
<g filter="url(#filter0_d)">
<circle cx="85" cy="70" r="55" fill="url(#paint0_linear)"/>
</g>
<g clip-path="url(#clip0)" filter="url(#filter1_d)">
<path d="M90.1376 55.6166C90.1372 55.6161 90.137 55.6158 90.1366 55.6153L89.4282 54.9116C88.453 53.9429 88.4108 52.379 89.3324 51.3592H89.3348C89.3378 51.3557 89.3403 51.352 89.3434 51.3485C90.3807 50.1761 91.4301 48.9378 92.448 47.6597C94.3428 45.2808 93.015 41.8877 90.2833 41.1904H75.801C72.4118 41.1904 70.505 45.1094 72.6165 47.7605C78.3135 54.9132 85 60.8204 85 60.8204C85 60.8204 87.2584 58.8251 90.2681 55.7502C90.2247 55.7059 90.1809 55.6606 90.1376 55.6166Z" fill="white"/>
<path d="M106.59 82.0025C106.59 74.3012 98.2786 64.0191 90.951 56.4499C90.951 56.4499 90.9509 56.4499 90.9509 56.45C88.94 54.3822 91.219 56.7204 89.4284 54.9116C88.851 54.3381 88.6035 53.5561 88.6865 52.8018H77.8276C69.9913 60.352 58.5391 72.9289 58.5391 81.9483C58.5391 82.1023 58.5405 82.2559 58.5436 82.4091C58.7214 91.5455 66.2925 98.8093 75.4306 98.8093H91.7362C99.8626 97.8009 106.59 90.9788 106.59 82.0025Z" fill="white"/>
<path d="M91.008 47.7605C89.4492 49.7176 87.8164 51.5811 86.2666 53.2562C87.305 54.2649 88.3997 55.3566 89.5173 56.511C91.8309 54.1865 94.7158 51.11 97.3838 47.7604C99.4953 45.1094 97.5885 41.1904 94.1993 41.1904H87.8236C91.2126 41.1904 93.1194 45.1094 91.008 47.7605Z" fill="#FFDAF1"/>
<path d="M92.173 52.8018H86.6839C86.5445 52.9541 86.4049 53.1067 86.2666 53.2562C94.0824 60.8487 105.086 73.1073 105.086 81.9484C105.086 82.1024 105.084 82.256 105.081 82.4092C104.903 91.5455 97.3323 98.8093 88.1941 98.8093H94.5699C103.708 98.8093 111.279 91.5455 111.457 82.4092C111.46 82.2559 111.462 82.1023 111.462 81.9484C111.462 72.9289 100.009 60.352 92.173 52.8018Z" fill="#FFDAF1"/>
<path d="M90.1378 55.6168C90.1373 55.6164 90.1371 55.616 90.1368 55.6156L89.4284 54.9119C88.4791 53.9689 88.4166 52.4635 89.2637 51.4434H75.6386C74.4683 51.4434 73.5195 52.392 73.5195 53.5624C73.5195 54.7327 74.4682 55.6815 75.6386 55.6815H90.201C90.18 55.6602 90.1587 55.6382 90.1378 55.6168Z" fill="#FFDAF1"/>
<path d="M82.9835 93.0295C90.5483 93.0295 96.6808 86.897 96.6808 79.3321C96.6808 71.7673 90.5483 65.6348 82.9835 65.6348C75.4186 65.6348 69.2861 71.7673 69.2861 79.3321C69.2861 86.897 75.4186 93.0295 82.9835 93.0295Z" fill="#E94D79"/>
<path d="M84.7268 78.4317C84.38 78.3091 84.0603 78.1918 83.7638 78.0783V73.1319C84.6332 73.2983 85.1538 73.7442 85.1941 73.7797C85.5473 74.1004 86.0935 74.0766 86.4175 73.7254C86.7431 73.3724 86.7209 72.8223 86.3679 72.4967C86.3116 72.4447 85.3441 71.5746 83.7637 71.3718V70.3011C83.7637 69.8209 83.3744 69.4316 82.8942 69.4316C82.4139 69.4316 82.0247 69.8209 82.0247 70.3011V71.439C81.8489 71.4745 81.6689 71.5192 81.4848 71.5747C80.1066 71.9898 79.0763 73.1709 78.7963 74.6567C78.5417 76.0075 78.9716 77.3078 79.9184 78.0503C80.4461 78.4642 81.1077 78.8431 82.0247 79.2463V85.4282C81.1592 85.383 80.6049 85.2041 79.6571 84.584C79.2554 84.3211 78.7164 84.4338 78.4535 84.8356C78.1906 85.2375 78.3033 85.7764 78.7051 86.0393C79.9958 86.8837 80.8662 87.1154 82.0247 87.1675V88.3638C82.0247 88.844 82.414 89.2332 82.8942 89.2332C83.3745 89.2332 83.7637 88.844 83.7637 88.3638V87.1029C85.9996 86.7118 87.305 84.8902 87.5908 83.1894C87.952 81.0419 86.8277 79.1743 84.7268 78.4317ZM80.9915 76.682C80.5577 76.3417 80.3714 75.689 80.5052 74.9788C80.6301 74.3162 81.0847 73.5113 81.9864 73.2398C81.9993 73.2358 82.0119 73.2329 82.0247 73.2291V77.3231C81.6017 77.106 81.2641 76.8958 80.9915 76.682ZM85.876 82.9011C85.7083 83.8985 84.9894 84.9614 83.7637 85.3172V79.934C83.8881 79.9791 84.0158 80.0249 84.147 80.0712C86.078 80.7538 85.9586 82.4098 85.876 82.9011Z" fill="white"/>
<path d="M96.481 53.5624C96.481 52.3922 95.5323 51.4434 94.3619 51.4434H87.9064C86.989 52.4586 87.031 54.0155 88.0018 54.9798L88.7082 55.6814H94.3619C95.5323 55.6814 96.481 54.7327 96.481 53.5624Z" fill="#CE5BAD"/>
</g>
<defs>
<filter id="filter0_d" x="0" y="0" width="170" height="170" filterUnits="userSpaceOnUse" color-interpolation-filters="sRGB">
<feFlood flood-opacity="0" result="BackgroundImageFix"/>
<feColorMatrix in="SourceAlpha" type="matrix" values="0 0 0 0 0 0 0 0 0 0 0 0 0 0 0 0 0 0 127 0"/>
<feOffset dy="15"/>
<feGaussianBlur stdDeviation="15"/>
<feColorMatrix type="matrix" values="0 0 0 0 0.905882 0 0 0 0 0.309804 0 0 0 0 0.494118 0 0 0 0.25 0"/>
<feBlend mode="normal" in2="BackgroundImageFix" result="effect1_dropShadow"/>
<feBlend mode="normal" in="SourceGraphic" in2="effect1_dropShadow" result="shape"/>
</filter>
<filter id="filter1_d" x="46.1904" y="39.1904" width="77.619" height="77.619" filterUnits="userSpaceOnUse" color-interpolation-filters="sRGB">
<feFlood flood-opacity="0" result="BackgroundImageFix"/>
<feColorMatrix in="SourceAlpha" type="matrix" values="0 0 0 0 0 0 0 0 0 0 0 0 0 0 0 0 0 0 127 0"/>
<feOffset dy="8"/>
<feGaussianBlur stdDeviation="5"/>
<feColorMatrix type="matrix" values="0 0 0 0 0 0 0 0 0 0 0 0 0 0 0 0 0 0 0.05 0"/>
<feBlend mode="normal" in2="BackgroundImageFix" result="effect1_dropShadow"/>
<feBlend mode="normal" in="SourceGraphic" in2="effect1_dropShadow" result="shape"/>
</filter>
<linearGradient id="paint0_linear" x1="44.703" y1="-46.2264" x2="159.307" y2="-18.5276" gradientUnits="userSpaceOnUse">
<stop stop-color="#FF424F"/>
<stop offset="1" stop-color="#C45FBF"/>
</linearGradient>
<clipPath id="clip0">
<rect width="57.619" height="57.619" fill="white" transform="translate(56.1904 41.1904)"/>
</clipPath>
</defs>
</svg>
