<svg width="49" height="33" viewBox="0 0 49 33" fill="none" xmlns="http://www.w3.org/2000/svg">
<g clip-path="url(#clip0)">
<path d="M48.1255 29.0566V30.3172C48.1255 31.4484 47.1559 32.3857 45.96 32.3857H2.35887C1.16299 32.3857 0.193359 31.4484 0.193359 30.3172V29.0566H19.9092C20.0708 29.5091 20.5233 29.8647 21.0728 29.8647H27.2461C27.7956 29.8647 28.2481 29.5415 28.4097 29.0566H48.1255Z" fill="#C5DCFA"/>
<path d="M48.1255 29.0566C48.1255 30.1879 47.1559 31.0929 45.96 31.0929H2.35887C1.16299 31.0929 0.193359 30.1879 0.193359 29.0566H19.9092C20.0708 29.5091 20.5233 29.8647 21.0728 29.8647H27.2461C27.7956 29.8647 28.2481 29.5415 28.4097 29.0566H48.1255Z" fill="#E1ECFA"/>
<path d="M45.5725 29.0566H2.58545V1.84228C2.58545 0.969609 3.29651 0.258545 4.16918 0.258545H44.0211C44.8937 0.258545 45.6048 0.969609 45.6048 1.84228L45.5725 29.0566Z" fill="#C5DCFA"/>
<path d="M34.9709 29.1536H4.68604V2.521H43.5037V29.1536H39.4312" fill="white"/>
<path d="M16.7431 26.4064H14.6309C14.3962 26.4064 14.2202 26.2304 14.2202 25.9957V12.2079C14.2202 11.9732 14.3962 11.7678 14.6309 11.7678H16.7431C16.9778 11.7678 17.1538 11.9438 17.1538 12.2079V25.9957C17.1538 26.2304 16.9778 26.4064 16.7431 26.4064Z" fill="#926CF6"/>
<path d="M28.1542 26.4063H26.042C25.8074 26.4063 25.6313 26.2303 25.6313 25.9956V18.6617C25.6313 18.427 25.8074 18.251 26.042 18.251H28.1542C28.3889 18.251 28.5649 18.427 28.5649 18.6617V25.9956C28.5649 26.2303 28.3889 26.4063 28.1542 26.4063Z" fill="#926CF6"/>
<path d="M33.8456 26.4063H31.7335C31.4988 26.4063 31.3228 26.2303 31.3228 25.9956V21.8886C31.3228 21.6539 31.4988 21.4779 31.7335 21.4779H33.8456C34.0803 21.4779 34.2563 21.6539 34.2563 21.8886V25.9956C34.2857 26.2303 34.0803 26.4063 33.8456 26.4063Z" fill="#926CF6"/>
<path d="M22.434 26.4064H20.3218C20.0871 26.4064 19.9111 26.2304 19.9111 25.9957V15.6695C19.9111 15.4348 20.0871 15.2588 20.3218 15.2588H22.434C22.6687 15.2588 22.8447 15.4348 22.8447 15.6695V25.9957C22.874 26.2304 22.6687 26.4064 22.434 26.4064Z" fill="#926CF6"/>
<path d="M33.347 8.24752L29.8267 10.3304L29.6507 6.25269C27.4798 6.34069 25.749 8.13017 25.749 10.3304C25.749 12.5892 27.5678 14.4374 29.856 14.4374C32.1442 14.4374 33.963 12.6185 33.963 10.3304C33.9337 9.56763 33.699 8.86357 33.347 8.24752Z" fill="#926CF6"/>
<path d="M34.0806 6.81006C33.3765 5.60729 32.0564 4.78589 30.5603 4.78589C30.5016 4.78589 30.4429 4.78589 30.3843 4.78589L30.5603 8.86356L34.0806 6.81006Z" fill="#21D3AC"/>
</g>
<defs>
<clipPath id="clip0">
<rect width="48.1584" height="32.6443" fill="white"/>
</clipPath>
</defs>
</svg>
